<?xml version="1.0" encoding="utf-8"?>
<!-- Generator: Adobe Illustrator 23.0.4, SVG Export Plug-In . SVG Version: 6.00 Build 0)  -->
<svg version="1.1" id="Layer_1" xmlns="http://www.w3.org/2000/svg" xmlns:xlink="http://www.w3.org/1999/xlink" x="0px" y="0px"
	 viewBox="0 0 5000 5000" style="enable-background:new 0 0 5000 5000;" xml:space="preserve">
<style type="text/css">
	.st0{fill:#E4EDFE;}
	.st1{fill:#CDDEFC;}
	.st2{fill:#FFFFFF;}
	.st3{fill:#CEDDF4;}
	.st4{fill:#BACDF7;}
	.st5{fill:#9BB8EA;}
	.st6{fill:#94B2DD;}
	.st7{fill:#819EC9;}
	.st8{fill:#B9CEED;}
	.st9{fill:#759AC7;}
	.st10{fill:none;stroke:#759AC7;stroke-width:8;stroke-linecap:round;stroke-miterlimit:10;}
	.st11{fill:#FFD3C7;}
	.st12{fill:#6A9FD3;}
	.st13{clip-path:url(#SVGID_2_);}
	.st14{opacity:0.1;enable-background:new    ;}
	.st15{fill:url(#SVGID_3_);}
	.st16{fill:#F4B5A6;}
	.st17{fill:url(#SVGID_4_);}
	.st18{fill:url(#SVGID_5_);}
	.st19{fill:#1C1666;}
	.st20{clip-path:url(#SVGID_7_);}
	.st21{opacity:0.2;fill:#020202;enable-background:new    ;}
	.st22{fill:#8EC2FE;}
	.st23{clip-path:url(#SVGID_9_);}
	.st24{clip-path:url(#SVGID_11_);}
	.st25{fill:#F9A662;}
	.st26{clip-path:url(#SVGID_13_);}
	.st27{fill:#F2642C;}
	.st28{fill:#DB5221;}
	.st29{fill:url(#SVGID_14_);}
	.st30{fill:#1A2155;}
	.st31{fill:url(#SVGID_15_);}
	.st32{fill:#2D092C;}
	.st33{fill:#440D40;}
	.st34{fill:#561756;}
	.st35{fill:#4C124B;}
	.st36{fill:url(#SVGID_16_);}
	.st37{fill:#454575;}
	.st38{fill:url(#SVGID_17_);}
	.st39{fill:#D3DFF4;}
	.st40{fill:url(#SVGID_18_);}
	.st41{fill:url(#SVGID_19_);}
	.st42{fill:#F2CB7E;}
	.st43{fill:url(#SVGID_20_);}
	.st44{fill-rule:evenodd;clip-rule:evenodd;fill:#FFFFFF;}
	.st45{fill:url(#SVGID_21_);}
	.st46{fill-rule:evenodd;clip-rule:evenodd;fill:#9999E9;}
	.st47{fill:url(#SVGID_22_);}
	.st48{fill-rule:evenodd;clip-rule:evenodd;fill:#FCD958;}
	.st49{fill:url(#SVGID_23_);}
	.st50{fill-rule:evenodd;clip-rule:evenodd;fill:#66BCCC;}
	.st51{opacity:0.4;fill:#8EC2FE;enable-background:new    ;}
	.st52{opacity:0.4;fill:#FFFFFF;enable-background:new    ;}
	.st53{opacity:0.6;fill:#8EC2FE;enable-background:new    ;}
	.st54{opacity:0.3;}
	.st55{fill-rule:evenodd;clip-rule:evenodd;fill:#F15A57;}
	.st56{fill-rule:evenodd;clip-rule:evenodd;fill:#AAE3FE;}
	.st57{fill-rule:evenodd;clip-rule:evenodd;fill:#FE8B8B;}
	.st58{fill-rule:evenodd;clip-rule:evenodd;fill:#4BA2CA;}
	.st59{fill-rule:evenodd;clip-rule:evenodd;fill:#91D2FB;}
	.st60{fill-rule:evenodd;clip-rule:evenodd;fill:#0668A4;}
	.st61{fill-rule:evenodd;clip-rule:evenodd;fill:#0184BD;}
	.st62{fill-rule:evenodd;clip-rule:evenodd;fill:#67BCE4;}
	.st63{fill-rule:evenodd;clip-rule:evenodd;fill:#69BCE5;}
	.st64{fill-rule:evenodd;clip-rule:evenodd;fill:#68BCE5;}
	.st65{fill-rule:evenodd;clip-rule:evenodd;fill:#68BCE4;}
	.st66{fill-rule:evenodd;clip-rule:evenodd;fill:#71BFD8;}
	.st67{fill-rule:evenodd;clip-rule:evenodd;fill:#5AA3C3;}
	.st68{fill-rule:evenodd;clip-rule:evenodd;fill:#FEEBE3;}
	.st69{fill-rule:evenodd;clip-rule:evenodd;fill:#58A7E1;}
	.st70{fill-rule:evenodd;clip-rule:evenodd;fill:#4FA1CA;}
	.st71{fill-rule:evenodd;clip-rule:evenodd;fill:#C7ECFE;}
	.st72{fill-rule:evenodd;clip-rule:evenodd;fill:#57A8E1;}
	.st73{fill-rule:evenodd;clip-rule:evenodd;fill:#58A7E2;}
	.st74{fill-rule:evenodd;clip-rule:evenodd;fill:#4DA3C8;}
	.st75{fill-rule:evenodd;clip-rule:evenodd;fill:#2F80B7;}
	.st76{fill-rule:evenodd;clip-rule:evenodd;fill:#C3ECFD;}
	.st77{fill-rule:evenodd;clip-rule:evenodd;fill:#C6EDFB;}
	.st78{fill-rule:evenodd;clip-rule:evenodd;fill:#C4ECFC;}
	.st79{fill-rule:evenodd;clip-rule:evenodd;fill:#E2F5F6;}
	.st80{fill-rule:evenodd;clip-rule:evenodd;fill:#F1734A;}
	.st81{fill-rule:evenodd;clip-rule:evenodd;fill:#FD984F;}
	.st82{fill-rule:evenodd;clip-rule:evenodd;fill:#72CDF0;}
	.st83{fill-rule:evenodd;clip-rule:evenodd;fill:#6ACBF0;}
	.st84{fill-rule:evenodd;clip-rule:evenodd;fill:#73C7EC;}
	.st85{fill-rule:evenodd;clip-rule:evenodd;fill:#9CADB4;}
	.st86{fill-rule:evenodd;clip-rule:evenodd;fill:#9FB6B2;}
	.st87{fill-rule:evenodd;clip-rule:evenodd;fill:#A9E3FD;}
	.st88{fill-rule:evenodd;clip-rule:evenodd;fill:#FC8B8B;}
	.st89{fill-rule:evenodd;clip-rule:evenodd;fill:#2E81B6;}
	.st90{fill-rule:evenodd;clip-rule:evenodd;fill:#5FCBF5;}
	.st91{fill-rule:evenodd;clip-rule:evenodd;fill:#5DCBF6;}
	.st92{fill-rule:evenodd;clip-rule:evenodd;fill:#FEE8E2;}
</style>
<g>
	
		<image style="overflow:visible;opacity:0.25;enable-background:new    ;" width="1560" height="1153" xlink:href="E671F01B25F6ED7F.png"  transform="matrix(1 0 0 1 480 933.285)">
	</image>
	<path class="st0" d="M520,1914.6c0,67,47.4,121.3,105.8,121.3H1884c58.4,0,105.8-54.3,105.8-121.3v-819.5
		c0-67-47.4-121.3-105.8-121.3H625.8c-58.4,0-105.8,54.3-105.8,121.3V1914.6z"/>
	<rect x="1478.7" y="1127.4" class="st1" width="330.2" height="227.7"/>
	<rect x="1232.9" y="1265.5" class="st2" width="330.2" height="252.9"/>
	<rect x="609.2" y="1127.4" class="st1" width="572.1" height="394.6"/>
	<rect x="958.9" y="1621.5" class="st0" width="819.4" height="29.5"/>
	<rect x="958.9" y="1742.6" class="st0" width="819.4" height="29.5"/>
	<rect x="958.9" y="1863.8" class="st0" width="819.4" height="29.5"/>
	<path class="st3" d="M1060.9,3405.6c0,36.8-89,66.6-198.9,66.6s-198.9-29.8-198.9-66.6c0-36.7,89-66.5,198.9-66.5
		S1060.9,3368.8,1060.9,3405.6z"/>
	<path class="st4" d="M649.2,3090.4l44.4,303.6c0,0,35.2,47.6,168.1,47.6s168.1-47.6,168.1-47.6l44.4-303.6H649.2z"/>
	<path class="st5" d="M861.7,3255.7c78.2,0,147.8-9.9,192-25.1l19.8-135.6H649.8l19.8,135.6C713.9,3245.8,783.5,3255.7,861.7,3255.7
		z"/>
	<path class="st4" d="M1103.9,3160.4c0,35.5-108.4,64.3-242.1,64.3s-242.2-28.8-242.2-64.3l-11.6-96.5h507.6L1103.9,3160.4z"/>
	<ellipse class="st5" cx="861.7" cy="3063.9" rx="253.8" ry="67.4"/>
	<ellipse class="st6" cx="861.7" cy="3062.6" rx="226.9" ry="50.8"/>
	<path class="st7" d="M645.2,3077.8c28.9-20.6,114.9-35.5,216.5-35.5s187.6,14.9,216.5,35.5c6.7-4.8,10.4-9.9,10.4-15.2
		c0-28-101.6-50.8-226.9-50.8s-226.9,22.7-226.9,50.8C634.8,3067.9,638.4,3073,645.2,3077.8z"/>
	<path class="st1" d="M1040.5,2659.4c16.4-58.9-3.5-105.5-25.2-158.1c-21.6-52.6-25.3-108.4-17-163.7c11.1-75,36-147.5,7.2-220.3
		c-26.9-68.7-52.9-159.2-127.2-188.2c-72.2-30.8-126.9,40.4-125.7,106s38.5,124.8,19.9,189.6c-14.2,53.1-32.7,115.9-5,166.7
		c33.1,63,94.9,107.3,71.8,183.9c-9.1,27.4-24,50.7-27.1,78.4c-3.7,41.6,17.3,51.8,36.2,85c79.5,139.8-66.2,196.1-9,349.7
		c1.6,4.3,5.8,7.1,10.3,6.9l0,0c5-0.2,9.2-4.1,9.8-9.1c18.2-171.7,140.6-112.5,141.9-251.6c0.2-25.9-7.8-52-4.7-77.7
		C1000.3,2717.3,1031,2696.8,1040.5,2659.4z"/>
	<path class="st8" d="M942.2,2800.6h-0.1c-57.4-9.7-64.8-88.3-64.9-89.1c0-0.5,0.3-0.9,0.8-0.9c0.5,0,0.9,0.3,0.9,0.8
		c0.1,0.8,7.4,78.1,63.5,87.6c0.5,0.1,0.8,0.5,0.7,0.9C943,2800.3,942.6,2800.6,942.2,2800.6L942.2,2800.6z"/>
	<path class="st8" d="M900.9,2443.4c-0.1,0-0.2,0-0.3,0c-73.4-23.7-78.3-111.4-78.4-112.3c0-0.4,0.3-0.8,0.8-0.9c0,0,0,0,0,0
		c0.4,0,0.8,0.3,0.9,0.7c0,0,0,0.1,0,0.1c0,0.9,4.9,87.5,77.2,110.8c0.4,0.2,0.7,0.6,0.5,1.1
		C901.6,2443.2,901.3,2443.5,900.9,2443.4L900.9,2443.4z"/>
	<path class="st8" d="M911.7,2317.7c-0.4,0-0.7-0.3-0.8-0.7c-0.1-0.4,0.2-0.9,0.6-1c0,0,0,0,0.1,0c70.3-13.5,74.5-103.5,74.6-104.4
		c0-0.4,0.4-0.8,0.9-0.8c0.5,0,0.8,0.4,0.8,0.9c0,0,0,0,0,0c0,0.9-4.3,92.2-75.9,106L911.7,2317.7z"/>
	<path class="st8" d="M943.8,2623.4c-0.3,0-0.6-0.2-0.8-0.5c-0.2-0.4,0-0.9,0.4-1.1c56.9-25,40.6-123.6,40.4-124.6
		c-0.1-0.4,0.2-0.9,0.6-1c0,0,0,0,0,0c0.5-0.1,0.9,0.2,1,0.7c0,0,0,0,0,0c0.2,1,16.7,100.9-41.4,126.4
		C944,2623.4,943.9,2623.4,943.8,2623.4z"/>
	<path class="st8" d="M878,2934.2c-0.5,0-0.8-0.4-0.8-0.9c0-0.4,0.3-0.7,0.7-0.8c46.9-4.7,69.1-31.4,79.4-53
		c6.9-14.5,10.7-30.3,11.4-46.4c0-0.5,0.4-0.8,0.8-0.8c0,0,0,0,0,0l0,0c0.5,0,0.8,0.4,0.8,0.8l0,0c-0.7,16.3-4.6,32.3-11.5,47
		C948.3,2902.2,925.8,2929.4,878,2934.2L878,2934.2z"/>
	<path class="st8" d="M916.7,2192.8c-0.1,0-0.1,0-0.2,0c-54.6-15.4-62-107.2-62-108.1c0-0.5,0.3-0.8,0.8-0.9c0.5,0,0.8,0.3,0.9,0.8
		c0.1,0.9,7.4,91.5,60.8,106.6c0.4,0.1,0.7,0.6,0.6,1C917.4,2192.6,917.1,2192.8,916.7,2192.8z"/>
	<path class="st8" d="M849.8,3093c-0.4,0-0.8-0.3-0.8-0.7c-10.7-99.9,20.8-149.8,51.4-198c14.9-23.5,29-45.8,37.1-72.8
		c34.6-115,8.6-203.9-23.5-292.3c-23.4-64.4-11.9-148-4.3-203.3c1.9-14,3.6-26,4.4-35.5c9.7-133.8-8.1-224.1-52.9-268.4
		c-0.3-0.3-0.3-0.8,0-1.2c0.3-0.3,0.8-0.3,1.2,0c45.1,44.6,63.1,135.4,53.4,269.7c-0.8,9.6-2.5,21.6-4.4,35.6
		c-7.6,55.1-19,138.5,4.2,202.5c32.2,88.7,58.2,177.8,23.5,293.3c-8.2,27.2-22.3,49.5-37.2,73.1c-30.4,48-61.8,97.6-51.1,196.9
		C850.7,3092.5,850.4,3092.9,849.8,3093L849.8,3093z"/>
	<path class="st8" d="M1001.2,2826.8c0.1,2.6,0.2,5.2,0.2,7.8c-0.8,91.3-53.9,97.2-95.3,139c4.9-24.4,6-54.5,22.3-74.4
		c17.9-19.9,41.7-23.8,59.6-47.7C994.3,2842.6,998.6,2834.5,1001.2,2826.8z M1015.3,2501.3c-21.6-52.6-25.3-108.4-17-163.7
		c0.8-5.4,1.7-10.9,2.6-16.3c-28.4,11-50.8,31.8-64.3,60.5c-40.2,85.3-8.5,143.1,26,207.6c28.2,52.6,9.9,101.3,15.9,156.9
		c2.5,23.2,12.6,41.3,20.5,58.6c-2-16.1-4.3-32.1-2.4-48c3.7-39.6,34.3-60.2,43.8-97.5C1056.8,2600.5,1037,2553.9,1015.3,2501.3
		L1015.3,2501.3z M865.3,2948c-5.6-12.1-12.3-25.1-13.5-38.3c-18.2,47.6-38.3,96.8-16.7,166.2c0,0.2,0.1,0.4,0.2,0.6
		c1.2,3.9,2.6,7.9,4.1,12c0.3,0.8,0.7,1.5,1.2,2.2c0.1,0.1,0.2,0.2,0.2,0.4c0.5,0.7,1,1.3,1.7,1.8l0.1,0.1c2,1.7,4.6,2.6,7.2,2.4
		l0,0c2-0.1,3.8-0.8,5.5-1.9c2.2-1.5,3.7-3.9,4.2-6.6c0-0.2,0.1-0.4,0.1-0.6c2.7-25.6,7.7-46,14.3-62.7c-3.8,2.4-7.6,4.7-11.5,7.1
		C874.6,3002.8,883.1,2986.4,865.3,2948L865.3,2948z"/>
	<path class="st0" d="M1227.5,2628.9c-35.7-65.5-35.7-108.9-31.8-178.7c4-71.5-17.9-166.8-105.2-182.7
		c-65.5-11.9-118.8,14.7-143.2,66.4c-40.2,85.3-8.5,143.1,26,207.6c28.2,52.6,9.9,101.3,15.9,156.9s55.6,81.4,13.9,139
		c-17.9,23.8-41.7,27.8-59.6,47.7c-17.9,21.8-17.5,56.1-23.8,81.4c-16,64-78.7,54.9-81.3,119.8c-0.2,4.8,3.7,9.7,7.1,9.5
		c3.4-0.2,6.1,0.5,8.5-3.8c14.7-26.1,39-22.1,66.2-34.1c20.2-8.9,26.4-33.9,74.9-39.7c63.4-7.6,121.1,33.8,152.9-51.6
		c11.9-29.8,8-55.6,13.9-85.4c6-39.7,31.8-63.5,57.6-91.3C1265.2,2738.1,1259.3,2686.4,1227.5,2628.9z"/>
	<path class="st1" d="M1101.8,2504.6L1101.8,2504.6c-58.1-5-100.2-78.4-100.6-79.2c-0.3-0.4-0.2-0.9,0.2-1.2
		c0.4-0.3,0.9-0.2,1.2,0.2c0,0,0.1,0.1,0.1,0.1c0.4,0.7,42.1,73.4,99.3,78.3c0.5,0,0.8,0.4,0.8,0.9
		C1102.6,2504.3,1102.3,2504.6,1101.8,2504.6L1101.8,2504.6z"/>
	<path class="st1" d="M1084.8,2815.5c-0.2,0-0.3,0-0.5-0.1c-17.8-11.8-29.9-42.7-35.9-91.6c-2.7-23.2-4-46.6-3.7-70
		c0-0.4,0.4-0.8,0.8-0.8c0.5,0,0.8,0.4,0.8,0.8c0,0,0,0,0,0c0,1.3-2.7,132.7,38.8,160.3c0.4,0.3,0.5,0.8,0.2,1.1
		C1085.4,2815.4,1085.1,2815.5,1084.8,2815.5z"/>
	<path class="st1" d="M1107.1,2699.7c-0.5,0-0.8-0.4-0.8-0.8c0-0.4,0.2-0.7,0.6-0.8c70.2-19.7,75.8-132.3,75.8-133.4
		c0-0.4,0.4-0.8,0.8-0.8l0,0c0.5,0,0.8,0.4,0.8,0.9c0,0,0,0,0,0c-1.4,20.3-5.2,40.4-11.4,59.8c-13.4,40.9-36.1,66.9-65.6,75.2
		C1107.2,2699.7,1107.1,2699.7,1107.1,2699.7z"/>
	<path class="st1" d="M1006.6,2986.4c-7.4,0-14.8-0.7-22.1-1.9c-0.5-0.1-0.8-0.5-0.7-0.9c0,0,0,0,0-0.1c0.1-0.4,0.5-0.7,1-0.7
		c53.3,9.1,88.4-16.2,108.4-39.1c13.4-15.5,23.9-33.2,31.1-52.4c0.2-0.4,0.7-0.6,1.1-0.4c0.4,0.2,0.6,0.6,0.5,1
		c-7.2,19.4-17.9,37.3-31.4,53C1077.1,2964.7,1048.5,2986.4,1006.6,2986.4z"/>
	<path class="st1" d="M1095.1,2451.9c-0.2,0-0.5-0.1-0.6-0.3c-0.3-0.3-0.3-0.9,0-1.2c44.1-40.3,15.1-126.1,14.8-127
		c-0.1-0.4,0.1-0.9,0.5-1.1c0.4-0.1,0.9,0.1,1.1,0.5c0.3,0.9,29.6,87.7-15.2,128.8C1095.5,2451.8,1095.3,2451.9,1095.1,2451.9z"/>
	<path class="st1" d="M846.3,3090.4h-0.2c-0.4-0.1-0.7-0.6-0.6-1c7.5-27.5,40-41.9,61.6-51.3c6.8-3,12.6-5.5,16.2-7.9
		c42.4-27.6,78-61.8,105.8-101.5c28.7-41.2,50-89.6,63.2-144c27.6-113.8,21.3-259.3-18.8-432.4c-0.1-0.4,0.1-0.9,0.5-1.1
		c0.4-0.1,0.9,0.1,1.1,0.5c0,0.1,0,0.1,0,0.2c40.2,173.3,46.5,319.1,18.8,433.2c-13.3,54.6-34.6,103.3-63.5,144.6
		c-27.9,40-63.7,74.3-106.2,102c-3.7,2.4-9.6,5-16.4,8c-21.3,9.4-53.4,23.5-60.7,50.2C846.9,3090.2,846.6,3090.4,846.3,3090.4z"/>
	<path class="st1" d="M838.4,3086.2c-0.2,4.8,3.7,9.7,7.1,9.5h0.5c10.7-8-2.8-19.5,13.4-57.4C848,3049.3,839.4,3063,838.4,3086.2z"
		/>
	<path class="st0" d="M850.4,2929.1c-19.7-42.3-1.1-96.7-20.5-127.6c-23.7-38.6-63.4-9.2-109.4-62.3
		c-38.6-44.6-10.8-106.3-98.8-152.3c-26.8-14-58-7.1-68.5,23.2c-12.5,28.4,7.3,69.2,16.6,96.6c9,23.3,19.7,40.6,15.2,66.5
		c0,0.3-0.1,0.5-0.2,0.8c-5.1,19.9-18.2,30.5-11.2,53.8c14.7,57,95.3,51.8,136,87.3c28.7,25,2.8,54.9,30.9,92.8
		c27.9,37.5,42.1-3.3,92.3,85.6c1.8,3.2,5.8,4.3,9,2.5l0,0c2.2-1.3,3.5-3.7,3.3-6.3C838.1,2993.5,879.4,2991.3,850.4,2929.1z"/>
	<path class="st1" d="M626.6,2713.3c-0.1,0-0.2,0-0.3,0c-41.7-13.8-47-58-47-58.4c0-0.5,0.3-0.9,0.7-0.9c0.4,0,0.8,0.3,0.9,0.7
		c0,0.4,5.2,43.6,45.9,57c0.4,0.1,0.7,0.6,0.5,1C627.3,2713.1,627,2713.3,626.6,2713.3L626.6,2713.3z"/>
	<path class="st1" d="M672.2,2813.5c-39.7,0-69.1-33.3-69.5-33.7c-0.3-0.3-0.3-0.9,0-1.2c0.3-0.3,0.9-0.3,1.2,0c0,0,0,0,0,0.1
		c0.4,0.5,42,47.6,92.8,28.6c0.4-0.2,0.9,0,1.1,0.4s0,0.9-0.4,1.1c0,0-0.1,0-0.1,0C689.3,2812,680.8,2813.5,672.2,2813.5z"/>
	<path class="st1" d="M766.4,2859.1c-0.2,0-0.4-0.1-0.6-0.2c-0.3-0.3-0.3-0.9,0-1.2c22.5-23.4-8-74.6-8.3-75.2
		c-0.2-0.4-0.1-0.9,0.3-1.1c0.4-0.2,0.9-0.1,1.1,0.3c5.3,9.3,9.6,19,12.9,29.2c6.6,21.3,4.9,37.9-4.8,48
		C766.8,2859.1,766.6,2859.1,766.4,2859.1z"/>
	<path class="st1" d="M792.9,2969.1c-0.3,0-0.5-0.1-0.7-0.3c-0.3-0.4-0.2-0.9,0.2-1.2c31.5-23,13.6-86.3,13.4-86.9
		c-0.2-0.4,0.1-0.9,0.5-1.1c0.4-0.2,0.9,0.1,1.1,0.5c0,0,0,0.1,0,0.1c0.2,0.6,18.5,65.1-14,88.8C793.2,2969,793,2969.1,792.9,2969.1
		z"/>
	<path class="st1" d="M662.8,2775.7c-0.2,0-0.4-0.1-0.6-0.2c-0.3-0.3-0.3-0.8,0-1.2c0,0,0,0,0,0c22.6-23.5-3.8-89.7-4.1-90.4
		c-0.2-0.4,0-0.9,0.5-1.1c0.4-0.2,0.9,0,1.1,0.5c4.6,11.9,8.2,24.2,10.7,36.7c5.2,26.5,2.9,45.2-7,55.4
		C663.3,2775.6,663.1,2775.7,662.8,2775.7z"/>
	<path class="st1" d="M780.3,2913.8c-30.4,0-50.9-9.2-63.1-17.3c-14.6-9.7-20.6-19.8-20.9-20.2c-0.2-0.4-0.1-0.9,0.3-1.1
		c0.4-0.2,0.9-0.1,1.1,0.3c0.2,0.4,24.8,40.4,91.8,36.4c0.4,0,0.8,0.3,0.9,0.7c0,0,0,0,0,0c0,0.5-0.3,0.8-0.8,0.9
		C786.5,2913.7,783.3,2913.8,780.3,2913.8z"/>
	<path class="st1" d="M817.2,3014.9h-0.1c-35-5-53.3-18.7-62.6-29.4c-10.1-11.6-11.9-21.8-11.9-22.2c-0.1-0.5,0.2-0.9,0.7-0.9
		c0,0,0,0,0,0c0.4-0.1,0.9,0.2,0.9,0.6c0,0,0,0,0,0c0.1,0.4,7.4,40.8,73.2,50.2c0.5,0.1,0.8,0.5,0.7,0.9
		C818,3014.6,817.6,3014.9,817.2,3014.9z"/>
	<path class="st1" d="M838.1,3093.8c-0.5,0-0.8-0.4-0.8-0.8c-1.5-48.2-16.2-71.6-29.1-92.3c-10.4-16.6-19.4-31-18.7-54.4
		c1.3-43.5-1.5-79-48.9-107.3c-85.6-51.1-120.2-105.5-137-215.3c-0.1-0.5,0.2-0.9,0.7-0.9s0.9,0.2,1,0.7
		c16.7,109.2,51.1,163.2,136.2,214.1c48.1,28.8,51,66.3,49.7,108.8c-0.7,22.9,8.2,37,18.4,53.4c13,20.9,27.8,44.5,29.3,93.1
		C838.9,3093.4,838.5,3093.8,838.1,3093.8C838.1,3093.8,838.1,3093.8,838.1,3093.8L838.1,3093.8z"/>
	<rect x="3488.6" y="1967.3" class="st0" width="1031.4" height="1294"/>
	<rect x="3542.4" y="2019.7" class="st1" width="922.4" height="301.6"/>
	<rect x="3542.4" y="2374.1" class="st1" width="922.4" height="301.6"/>
	<rect x="3542.4" y="2739.2" class="st1" width="922.4" height="301.6"/>
	<path class="st0" d="M4036.3,2084.5c0,17.7-14.3,32-32,32s-32-14.3-32-32c0-17.7,14.3-32,32-32S4036.3,2066.8,4036.3,2084.5z"/>
	<path class="st0" d="M4036.3,2437.5c0,17.7-14.3,32-32,32s-32-14.3-32-32c0-17.7,14.3-32,32-32S4036.3,2419.9,4036.3,2437.5z"/>
	<path class="st0" d="M4036.3,2799.9c0,17.7-14.3,32-32,32s-32-14.3-32-32c0-17.7,14.3-32,32-32S4036.3,2782.3,4036.3,2799.9z"/>
	<path class="st9" d="M3216.5,2488.9c0,5-7.3,9.1-16.2,9.1s-16.3-4.1-16.3-9.1s7.3-9.1,16.3-9.1S3216.5,2483.9,3216.5,2488.9z"/>
	<line class="st10" x1="3230.4" y1="2507.3" x2="3359.1" y2="2581.6"/>
	<path class="st11" d="M2368.3,2562.4c-1.9,61.2-46.1,32.8-41.7,9.5c4.4-23.3-17.9-34.4-50.3-47.1c-21.2-8.3-30.5-26-34.3-37.1
		l25.1-21.6c9.2,9.5,27.3,25.5,45.6,28.2C2339.2,2498.2,2370.2,2501.3,2368.3,2562.4z"/>
	<path class="st12" d="M2275.7,2468.8l-2.5,2.1l-25.1,21.6l-3.4,2.9l-0.8,0.7c0,0-24.2-15.3-59.4-38.5c0,0-0.1-0.1-0.1,0
		c-81.3-53.9-220.8-150.6-253.8-201.3c-13-19.9-23.2-46.6-31.2-77.2c-1.1-4-2.1-8.1-3.1-12.3l0,0c-6.8-28.7-11.8-60.2-15.4-92.5
		c39.9-37.2,73.9-70.4,84.7-80.9c2.3-2.2,3.5-3.4,3.5-3.4l5.1,4.6c0.5-2,1.1-4.1,1.8-6.2c0.2,2.8,0.4,5.5,0.6,8.3l0,0
		c0.6,7.8,1.1,15.6,1.7,23.3c0.4,5.8,0.9,11.7,1.4,17.4l0,0c0.6,7.5,1.2,14.9,1.9,22.3c0.6,6.6,1.2,13.1,1.8,19.5
		c5.1,52.3,12.1,96,24.3,116.4C2066.1,2264.2,2275.7,2468.8,2275.7,2468.8z"/>
	<g>
		<defs>
			<path id="SVGID_1_" d="M2275.7,2468.8l-2.5,2.1l-25.1,21.6l-3.4,2.9l-0.8,0.7c0,0-24.2-15.3-59.4-38.5c0,0-0.1-0.1-0.1,0
				c-81.3-53.9-220.8-150.6-253.8-201.3c-13-19.9-23.2-46.6-31.2-77.2c-1.1-4-2.1-8.1-3.1-12.3l0,0c-6.8-28.7-11.8-60.2-15.4-92.5
				c39.9-37.2,73.9-70.4,84.7-80.9c2.3-2.2,3.5-3.4,3.5-3.4l5.1,4.6c0.5-2,1.1-4.1,1.8-6.2c0.2,2.8,0.4,5.5,0.6,8.3l0,0
				c0.6,7.8,1.1,15.6,1.7,23.3c0.4,5.8,0.9,11.7,1.4,17.4l0,0c0.6,7.5,1.2,14.9,1.9,22.3c0.6,6.6,1.2,13.1,1.8,19.5
				c5.1,52.3,12.1,96,24.3,116.4C2066.1,2264.2,2275.7,2468.8,2275.7,2468.8z"/>
		</defs>
		<clipPath id="SVGID_2_">
			<use xlink:href="#SVGID_1_"  style="overflow:visible;"/>
		</clipPath>
		<g class="st13">
			<path class="st14" d="M1871.8,2037.9c0,0,30.1,133.6,69,186.7s169.2,170.8,207.5,192s90.6,68.1,90.6,68.1s-1.8,16.8-11.5,15.9
				s-56.6-19.6-93.3-29.7c-36.7-10.1-39.4-10.3-63.3-23.9c-23.9-13.6,34.5,24.4-47.8-34.9c-82.3-59.3-69-40.8-93.8-87.2
				s-34.5-25.1-37.2-69.4c-2.7-44.2-1.2-58.2-8.8-73.4"/>
		</g>
	</g>
	
		<linearGradient id="SVGID_3_" gradientUnits="userSpaceOnUse" x1="1340.5249" y1="1194.83" x2="1516.3899" y2="1194.83" gradientTransform="matrix(1 0 0 -1 0 5000)">
		<stop  offset="0" style="stop-color:#F15A24"/>
		<stop  offset="1" style="stop-color:#F9A662"/>
	</linearGradient>
	<path class="st15" d="M1408,3666.7c-10.6,5.8-39.1,25.2-50.1,70.9c-13.6,56.5-15.4,66.4-17.2,67.7s11.7,11.3,11.7,11.3
		s10.1-33.8,33.2-43.7s15.8,69.5,13,74.5s79.6,78.9,117.8,96.2l-51.8-108.3c0,0,0-0.1,0-0.3
		C1427.3,3823.9,1411.4,3699.1,1408,3666.7z"/>
	<path class="st11" d="M1766.3,3216.2l-91.7-67.4c-12.9,10.5-29.4,33.5-47.7,64.2c1.3,34.9,4.7,135.2,5.6,198.3
		C1702.2,3306.6,1766.3,3216.2,1766.3,3216.2z"/>
	<path class="st11" d="M1470.2,3578.2c-1.7-27.3,0.6-23.6,0.8-43.6c-30.3,69.8-51,120.7-51,120.7l-3.6,7l-4.4,2.4c0,0-1.5,0.6-4,2
		c3.5,32.4,19.3,157.1,56.6,168.3c0.6-5.1,8.7-84.7,0.3-136.2c-0.3-1.8-0.6-3.5-1-5.3l0,0c5.1-12.8,10.9-25.3,17.4-37.5l0,0
		C1477.3,3627.7,1472.5,3614.6,1470.2,3578.2z"/>
	<path class="st16" d="M1626.9,3212.9c-49.5,82.9-112.5,221.6-155.9,321.7c-0.2,20-2.5,16.3-0.8,43.6c2.3,36.4,7.1,49.5,11.2,77.9
		l0,0c32.4-62.7,93.7-158.6,151.1-244.8C1631.6,3348.2,1628.2,3247.8,1626.9,3212.9z"/>
	
		<linearGradient id="SVGID_4_" gradientUnits="userSpaceOnUse" x1="1474.2274" y1="992.78" x2="1612.5399" y2="992.78" gradientTransform="matrix(1 0 0 -1 0 5000)">
		<stop  offset="0" style="stop-color:#F15A24"/>
		<stop  offset="1" style="stop-color:#F9A662"/>
	</linearGradient>
	<path class="st17" d="M1554.9,4066.7c-9.2-4.4-98.1-62.6-77.7-90.5c3.9-5.3,7.5-15.5,10.8-28.5c19.8,28.1,65.3,74.9,112.8,0.2
		l5.1,18C1635.6,3991.7,1554.9,4066.7,1554.9,4066.7z"/>
	<path class="st11" d="M1557.7,3796.7c-13.8-96.3,68.7-627.6,68.7-627.6l-107.6-45.8l-4.2-19.1l-26.5,189.2
		c-26.5,189.2,23.4,490,23.4,490s-1.3,15.8-3.7,38.3c-4,36.7-10.8,91.4-19.7,126c19.8,28.1,65.3,74.9,112.8,0.2l-36.6-128.2
		L1557.7,3796.7z"/>
	
		<linearGradient id="SVGID_5_" gradientUnits="userSpaceOnUse" x1="1179.49" y1="2172.1511" x2="1835.72" y2="2172.1511" gradientTransform="matrix(1 0 0 -1 0 5000)">
		<stop  offset="0" style="stop-color:#718BC6"/>
		<stop  offset="1" style="stop-color:#1B1464"/>
	</linearGradient>
	<path class="st18" d="M1490.8,2461.9l-58.3,22.3c0,0-114.4,178.8,69.3,675.2c0,0,184.2,58,234.4,23.4s105.2-708.7,105.2-708.7
		l-133.7-12.1L1490.8,2461.9z"/>
	<path class="st11" d="M1891.4,1503.4c0,0,0,15.9-1.6,38.9c-4.5,63.5-21.7,180.6-87.4,161.6c-8-2.3-16.8-6.7-26.4-13.5
		c-10.2-7.9-20.6-14.8-29.8-22.4c-9.9-8.2-18.6-17.1-24.7-28.7c-3.3-6.4-5.7-13.2-7.1-20.2c0,0-22.1-2.7-29.6-23s1.2-59.5,28.1-43
		c0,0,7.8-3.9,19.7-21.8s136.3-19.1,135.1-51.4L1891.4,1503.4z"/>
	<path class="st19" d="M1948.1,1474.9c0,70.1-40.5,66.7-40.5,66.7h-14.7c0,0-1.1,0.3-3.1,0.8c1.6-23,1.6-38.9,1.6-38.9l-23.6-23.6
		c1.2,32.3-123.1,33.5-135.1,51.4S1713,1553,1713,1553c-26.9-16.4-35.6,22.7-28.1,43s29.6,23,29.6,23c1.4,7.1,3.8,13.9,7.1,20.2
		c6.1,11.7,14.8,20.6,24.7,28.7l-8.8,39.4c-1.9-0.9-3.9-1.7-5.9-2.5c-37.3-14.4-80.8-6.5-108.2,46.9c-8.2,16.1-23.2,29.9-41.5,41.2
		c-6.7,4.1-13.6,7.9-20.7,11.2c-8,3.8-16.3,7.1-24.7,10c-7.6,2.6-15.2,4.9-22.8,6.9c-30.1,7.8-59.4,10.2-78.4,6.5
		c-47.7-9.2-178-73.6-243.3,6.9s-180.6,91.9-314.7,33.3s-26.3-321.8,101.5-292s179.3-102.3,295.9-157.5s163,28.7,250.8,36.8
		s51.4-78.1,200.6-124.1S1948.1,1404.8,1948.1,1474.9z"/>
	<g>
		<defs>
			<path id="SVGID_6_" d="M1948.1,1474.9c0,70.1-40.5,66.7-40.5,66.7h-14.7c0,0-1.1,0.3-3.1,0.8c1.6-23,1.6-38.9,1.6-38.9
				l-23.6-23.6c1.2,32.3-123.1,33.5-135.1,51.4S1713,1553,1713,1553c-26.9-16.4-35.6,22.7-28.1,43s29.6,23,29.6,23
				c1.4,7.1,3.8,13.9,7.1,20.2c6.1,11.7,14.8,20.6,24.7,28.7l-8.8,39.4c-1.9-0.9-3.9-1.7-5.9-2.5c-37.3-14.4-80.8-6.5-108.2,46.9
				c-8.2,16.1-23.2,29.9-41.5,41.2c-6.7,4.1-13.6,7.9-20.7,11.2c-8,3.8-16.3,7.1-24.7,10c-7.6,2.6-15.2,4.9-22.8,6.9
				c-30.1,7.8-59.4,10.2-78.4,6.5c-47.7-9.2-178-73.6-243.3,6.9s-180.6,91.9-314.7,33.3s-26.3-321.8,101.5-292
				s179.3-102.3,295.9-157.5s163,28.7,250.8,36.8s51.4-78.1,200.6-124.1S1948.1,1404.8,1948.1,1474.9z"/>
		</defs>
		<clipPath id="SVGID_7_">
			<use xlink:href="#SVGID_6_"  style="overflow:visible;"/>
		</clipPath>
		<g class="st20">
			<path class="st21" d="M895.6,1908.7c24.4-0.5,44.1,17.6,69.3,13.6c20.1-3.2,45.2-11.7,58.5-26.5c13.3-14.8,28.2-30.2,40.1-45.8
				c13.2-17.2,20.5-36.3,39.2-47.2c16.4-9.6,45.2-13.5,63.7-13.5c17.8,0,50.4-0.5,54.7-21.7c5.4-0.2,10.8-2.1,13.2-7.2
				c4.5-0.8,7-2.3,11.5-3.1c0.3-1.2-0.1-2.4,0.4-3.6c19.1-0.8,45.2,8.3,57.2,20.9c9.6-3.2,20.2,0.3,29.1,1.2
				c14.6,1.4,29.9,0.3,44.5,0.3c28.7,0,47.7-3.5,72.1-14.7c18.2-8.3,37.2-16.9,52.1-31.4c17.8-17.3,26.4-22.9,52.7-22.9
				c11.7,0,22,2.2,33,2.9c18.1,19.1,65.2-31.1,69.5-46.4l2.2-0.4c1.9-4.7,3.9-8.1,5.7-12.8c10.3,0.4,29.2-7.1,23.8-21.5
				c-2.5-6.7-18.5-13.1-23.7-18.7c-19-20.9-0.3-44.9,10.6-63.2c13.2-3,31.7-9,41.6-16.5c12.9-9.7,18.3-17.2,35.1-22.2
				s32.9-7.5,50.4-9.3c17.8-1.8,31.7-7.3,48.9-12.2c0.2-0.7,0.3-1.5,0.4-2.2c4.6-1.2,6.4-2.8,10.2-4.4c4.1-5.9,8.5-11.5,13.2-16.9
				c-0.2,15.1,15.6,27.5,29.3,29.3c0.4,1.2,0.1,2.3,0.4,3.6c4.3,1.7,6.1,6.8,8.8,9.7c14.3,15.4-5.2,53.6-4.9,70.9
				c0.6,32.6,2.8,65.2,9.1,97.3c3.8,19.6,12.6,37.4,17.1,57.4c5,22,8.1,44.2,8.2,67.1c0.1,45.7-31,80.8-70.5,103.3
				c-35.7,20.3-68.9,43.7-108.1,58.8c-55.6,21.4-115.6,32.9-173.3,46.3c-50.1,11.6-100,14-151.3,17.4c-63.9,4.2-128,8.2-191.9,11.9
				c-60.8,3.5-120.8,9.7-181.8,9.6c-25.2-0.1-53.9,3.6-78.6-1.3c-35.1-7-106.2-36.6-84.9-86.2"/>
		</g>
	</g>
	<path class="st22" d="M1991.3,2038.3c0,0-0.1,2.4-0.6,6.4c-1.4,11.6-3.9,23.1-7.3,34.3c-8.3,26.7-25.1,58.5-58.8,68.4
		c-0.8,0.2-1.6,0.5-2.4,0.8c-9,3.2-17.7,9.6-25.8,18.5l0,0c-12.8,13.8-24.3,33.8-33.9,57.9c-24.7,62-36.7,151.6-23.3,236
		c0.7,4.5,1.5,9,2.4,13.4c0,0-235.1,111.5-425.2,10.1c-0.9-0.5-1.9-1-2.8-1.5c0,0,3.9-5.2,10.6-14.5c0.1-0.2,0.2-0.3,0.3-0.5
		c1.8-2.5,3.7-5.2,5.8-8.2c0.1-0.1,0.2-0.2,0.2-0.3c40.7-58.4,140.1-212.9,129-314.5c-6-55-20.2-119.8-29.1-179
		c-9.6-63.7-13.1-120.7,6.3-151.4c8.4-2.9,16.6-6.2,24.7-10c2.1,1,4.2,2.1,6.4,3.3c60.4,34.1,111.5,324.1,156.7,397.3
		c28.6-14.2,98.7-76.8,156.6-130.9c39.9-37.2,73.9-70.4,84.7-80.9c2.1,5.3,4.2,10.1,6.3,14.4l0,0c2.2,4.5,4.4,8.6,6.4,12.1
		c3.5,6.1,7.5,11.8,11.9,17.3C1990.9,2037.9,1991.3,2038.3,1991.3,2038.3z"/>
	<g>
		<defs>
			<path id="SVGID_8_" d="M1991.3,2038.3c0,0-0.1,2.4-0.6,6.4c-1.4,11.6-3.9,23.1-7.3,34.3c-8.3,26.7-25.1,58.5-58.8,68.4
				c-0.8,0.2-1.6,0.5-2.4,0.8c-9,3.2-17.7,9.6-25.8,18.5l0,0c-12.8,13.8-24.3,33.8-33.9,57.9c-24.7,62-36.7,151.6-23.3,236
				c0.7,4.5,1.5,9,2.4,13.4c0,0-235.1,111.5-425.2,10.1c-0.9-0.5-1.9-1-2.8-1.5c0,0,3.9-5.2,10.6-14.5c0.1-0.2,0.2-0.3,0.3-0.5
				c1.8-2.5,3.7-5.2,5.8-8.2c0.1-0.1,0.2-0.2,0.2-0.3c40.7-58.4,140.1-212.9,129-314.5c-6-55-20.2-119.8-29.1-179
				c-9.6-63.7-13.1-120.7,6.3-151.4c8.4-2.9,16.6-6.2,24.7-10c2.1,1,4.2,2.1,6.4,3.3c60.4,34.1,111.5,324.1,156.7,397.3
				c28.6-14.2,98.7-76.8,156.6-130.9c39.9-37.2,73.9-70.4,84.7-80.9c2.1,5.3,4.2,10.1,6.3,14.4l0,0c2.2,4.5,4.4,8.6,6.4,12.1
				c3.5,6.1,7.5,11.8,11.9,17.3C1990.9,2037.9,1991.3,2038.3,1991.3,2038.3z"/>
		</defs>
		<clipPath id="SVGID_9_">
			<use xlink:href="#SVGID_8_"  style="overflow:visible;"/>
		</clipPath>
		<g class="st23">
			<path class="st14" d="M2097.5,2097.2c-9.9,0-19.1-0.4-28.5,2c-11.4,2.9-22.4,6.6-34.1,7.8c-38.2,3.9-78.7,2.3-117,2.6
				c-39.4,0.4-78.1,5.9-116.6,11.3c-24.9,3.5-50.9,13.5-75.9,21.6c-23.6,7.7-45.9,9.3-53.8,35.4c-4.9,16.3-6.7,33.4-9.7,50.2
				c-4,21.9-9.1,43.2-14.8,64.7c-9.3,35-24.7,67.9-35.3,102.3c-8.7,28-15.2,57-25.7,84.4c-4.8,12.7-7.6,26.1-12.2,38.5
				c-3.4,9.1-7.6,16.1-9.5,25.4c-1.9,9.2-2.8,14,7,17c27.7,8.7,61.4,9.5,90.2,12.4c35.8,3.6,72.6,2.7,108.6,2.9
				c33.7,0.2,69.3,3,102.7-2.4c32.8-5.3,66.3-10.6,97.4-22.5c18.5-7.1,39.3-14.6,54-28.3c24.8-23.3,38.3-56.7,52.6-87
				s30.9-60.1,41.9-91.7c7.8-22.3,17.7-42.9,18.5-67c0.3-8.1,2.1-21-0.9-28.5"/>
		</g>
	</g>
	<path class="st22" d="M1965.6,1993.2c-10.8,10.5-44.8,43.7-84.7,80.9c-57.9,54.1-128,116.7-156.6,130.9
		c-45.2-73.3-96.3-363.2-156.7-397.4c-2.2-1.3-4.4-2.4-6.4-3.3c7.1-3.3,14-7.1,20.7-11.2l113.1-18.6c5.4,7.8,57.3,77.9,123.8,5.9
		c-3.4-3.5-6.3-7.5-8.7-11.9l3.8-0.2l73.1-3.7l38.5-2c0,0,20.8,68.4,24.3,151.6C1951.1,1947.3,1957.9,1973.5,1965.6,1993.2z"/>
	<g>
		<defs>
			<path id="SVGID_10_" d="M1965.6,1993.2c-10.8,10.5-44.8,43.7-84.7,80.9c-57.9,54.1-128,116.7-156.6,130.9
				c-45.2-73.3-96.3-363.2-156.7-397.4c-2.2-1.3-4.4-2.4-6.4-3.3c7.1-3.3,14-7.1,20.7-11.2l113.1-18.6c5.4,7.8,57.3,77.9,123.8,5.9
				c-3.4-3.5-6.3-7.5-8.7-11.9l3.8-0.2l73.1-3.7l38.5-2c0,0,20.8,68.4,24.3,151.6C1951.1,1947.3,1957.9,1973.5,1965.6,1993.2z"/>
		</defs>
		<clipPath id="SVGID_11_">
			<use xlink:href="#SVGID_10_"  style="overflow:visible;"/>
		</clipPath>
		<g class="st24">
			<path class="st14" d="M2013.4,2099c-7-0.9-14.2,3.3-21.2,3.5c-8,0.3-15.9,0.3-23.9,0c-18.8-0.8-40.5-1-58.7-5.6
				c-14.6-3.7-24.8-9.2-40.4-6.8c-12.4,1.9-22.7,5.8-34.3,8.1c-5.5,6.3-19.2,12.1-27.4,15.8c-10.1,4.6-21.1,10.6-32,12.3
				c-18,2.9-36.7,1.4-54.9,5c-10.8,2.2-25.6-0.8-36.1,3.1c-3.8,10.8-4,23.1-4.6,34.4c-0.7,12.7-3.8,22.5-6.1,33.7
				c-2.3,11.2-7.6,20.7-9.8,31.7c-2,10.1-2.3,20.4-4.4,30.1"/>
		</g>
	</g>
	<path class="st12" d="M1975.9,1988.2c-0.7,2-1.3,4.1-1.8,6.2l-5.1-4.6c0,0-1.2,1.2-3.5,3.4c-7.7-19.7-14.5-45.9-15.8-78.8
		c-3.5-83.2-24.3-151.6-24.3-151.6C1955.1,1779.9,1968.3,1884.8,1975.9,1988.2z"/>
	<polygon class="st25" points="2265.6,2013.8 2004.9,2067.2 2113.8,1621.2 2374.5,1567.8 	"/>
	<path class="st11" d="M2122.4,1985.7c-26.1,20.6-69.5,22.7-86.5,21.7c-4.9-0.3-11.4,2.6-18,6.9c-5.8,3.8-11.3,8-16.5,12.5
		c0,0,0,0,0,0.1c-4.3,3.7-8.2,7.3-11.2,10.2c-4,3.8-6.4,6.4-6.4,6.4l-4.1-6.3l0,0l-8.3-12.8c-0.3-5.6-0.1-11.2,0.5-16.8l0,0
		c0.5-4.5,1.2-8.9,2.3-13.3c0.5-2,1.1-4.1,1.8-6.2c3.8-11.4,10.7-22.5,22.9-28c9.7-4.3,21.2-4.6,33.1-3.6c26.6,2.2,55.4,10,71.3-9.4
		C2126.4,1918.9,2148.5,1965.1,2122.4,1985.7z"/>
	<path class="st16" d="M1802.5,1704c-8-2.3-16.8-6.7-26.4-13.5c-10.2-7.9-20.6-14.8-29.8-22.4l-8.8,39.4c-1.9-0.9-3.9-1.7-5.9-2.5
		c-0.8,8.4-2.3,16.8-4.5,25c17-2.6,46.7-6.8,73.1-8.5C1800.5,1715.6,1801.2,1709.7,1802.5,1704z"/>
	<path class="st11" d="M1727.1,1730c-5.1,18.8-14.7,37-32.6,43.9c0,0,0.2,0.2,0.5,0.7c5.4,7.8,57.3,77.9,123.8,5.9
		c-3.4-3.5-6.3-7.5-8.7-11.9c-5.4-9.7-11.2-25.4-10-47.1C1773.7,1723.2,1744.1,1727.3,1727.1,1730z"/>
	<path class="st12" d="M2004.4,2021.5c0,0-1.1,1.8-3.1,5.2c0,0,0,0,0,0.1c-2.4,4-6,10-10.7,17.8c-2.7,4.4-5.8,9.4-9.1,14.8
		c-14.6,23.4-35.2,55.2-59.3,88.7c-7.3,10.1-14.9,20.5-22.8,30.8c-11.9,15.5-24.3,30.9-37,45.6c-70.2,81.2-149.6,140.1-195.7,67.4
		c-43.2-68.2-104.4-217-136.5-326.1c-9.6-63.7-13.1-120.7,6.3-151.4c8.4-2.9,16.6-6.2,24.7-10c2.1,1,4.2,2.1,6.4,3.3
		c60.4,34.1,111.5,324.1,156.7,397.3c28.6-14.2,98.7-76.8,156.6-130.9c39.9-37.2,73.9-70.4,84.7-80.9c2.3-2.2,3.5-3.4,3.5-3.4
		l5.1,4.6l2.4,2.2l0,0L2004.4,2021.5z"/>
	<g>
		<defs>
			<path id="SVGID_12_" d="M2004.4,2021.5c0,0-1.1,1.8-3.1,5.2c0,0,0,0,0,0.1c-2.4,4-6,10-10.7,17.8c-2.7,4.4-5.8,9.4-9.1,14.8
				c-14.6,23.4-35.2,55.2-59.3,88.7c-7.3,10.1-14.9,20.5-22.8,30.8c-11.9,15.5-24.3,30.9-37,45.6c-70.2,81.2-149.6,140.1-195.7,67.4
				c-43.2-68.2-104.4-217-136.5-326.1c-9.6-63.7-13.1-120.7,6.3-151.4c8.4-2.9,16.6-6.2,24.7-10c2.1,1,4.2,2.1,6.4,3.3
				c60.4,34.1,111.5,324.1,156.7,397.3c28.6-14.2,98.7-76.8,156.6-130.9c39.9-37.2,73.9-70.4,84.7-80.9c2.3-2.2,3.5-3.4,3.5-3.4
				l5.1,4.6l2.4,2.2l0,0L2004.4,2021.5z"/>
		</defs>
		<clipPath id="SVGID_13_">
			<use xlink:href="#SVGID_12_"  style="overflow:visible;"/>
		</clipPath>
		<g class="st26">
			<path class="st14" d="M1494.1,1857c8.8,11.2,21.9,19,30.9,29.5c8.1,9.5,14.2,24.9,23.3,31.7c4.1,21.8,12.3,46,17.8,68.8
				c5.8,24.2,12.1,49.3,20.6,72c14.8,39.3,24.8,80.7,43.8,117.7c7.8,15.2,13.6,30.9,22,45.1c6.5,11.1,13.8,20.9,18.4,33.1
				c1.2,0.6,2.3,0,3.6,0.4c0.3,1.2-0.2,2.5,0.4,3.6c16.9,12.9,28,25.3,50.2,26.8c21.1,1.4,38.3-5.3,54.4-18.3
				c13.9-11.3,26.9-24.3,41.1-35.1c17.2-13.1,24.9-29.2,36.9-45.1c4.2-5.6,9.6-9,11.2-15.4c12.1-5.3,23.6-26.1,35.7-34.4
				c10.8-7.3,27.7-24.1,42.2-24.5c0.1-0.7,0.2-1.5,0.4-2.2c3.3-1,2.3,0.2,4-2.6c8.6-2.4,18.8-8.2,28.7-1.3
				c8,5.6,10.3,24.3,10.9,33.9c2.2,35.7-7.5,66.5-18.9,98.2c-14,39.1-35.9,73.2-59.1,106.1c-30.3,43.1-69.2,88-116.1,115.8
				c-32.2,19.1-68.4,34.6-104.3,46.2c-22.8,7.4-47.2,12.7-71.4,10.9c-50.5-3.8-89.8-41.5-111-84.9c-48.4-99.4-16.9-208.2-16.9-313.6
				c0-94.8,1.4-190,1.3-284.9"/>
		</g>
	</g>
	<path class="st11" d="M2920.8,2283.5h-19.1c0,0-39.7,21.8-40.4,33.7c-0.7,11.9-6.3,16.7-6.3,16.7s31.8-2.1,40.2-4.8
		c8.4-2.7,14.2-7.1,25.7-6.6s15.5,0.4,22.1,0.4s8.1-2.5,14.2-2.1c6.1,0.4,10-6.9,12-12.1c2-5.3,8.8-11.4,7.5-14.5
		c-1.3-3.1-31.9-6.2-39.4-7.1"/>
	<path class="st27" d="M3428.2,1734.1c6.4-3.3,13.4-5.6,20.5-6.5l7.8-140.3l-11.1-17.9c0,0-175,258.7-317.1,427.7
		c-146.9,174.6-228.1,285.2-228.1,285.2s17.1,17,42.8,21.7c58.6-63.3,267.8-289.7,287.3-317.3
		C3253,1954.4,3428.2,1734.1,3428.2,1734.1z"/>
	<path class="st28" d="M3244.1,2036.1c28.3-37.2,201.8-257.8,201.8-257.8l2.8-50.8c-7.2,1-14.1,3.2-20.5,6.5
		c0,0-175.2,220.3-197.8,252.5c-19.5,27.6-228.6,254-287.3,317.3c3.8,0.7,7.7,1.1,11.6,1.1l31.8,7.1
		C3059.2,2244.5,3222.1,2064.9,3244.1,2036.1z"/>
	<path class="st11" d="M3446.3,3742.1c-12.7,12.4-27.4,25.7-37.7,31.6c-1,0.6-2.1,1.1-3.2,1.7c-5.6,46.1,80.4,16.7,120.4,0.6
		c-0.3-6,1.5-11.9,0.4-17.3c-0.4-2.1-0.8-4-1.1-5.8C3492.6,3767,3464.7,3755.3,3446.3,3742.1z"/>
	<path class="st16" d="M3513.2,3730.2l-41.1-14.6c0,0-11.6,12.7-25.8,26.5c18.4,13.1,46.3,24.8,78.8,10.8
		c-4.1-22.2-4.1-22.2-4.1-22.2L3513.2,3730.2z"/>
	
		<linearGradient id="SVGID_14_" gradientUnits="userSpaceOnUse" x1="3504.5911" y1="1290.547" x2="3255.1011" y2="950.807" gradientTransform="matrix(1 0 0 -1 0 5000)">
		<stop  offset="0" style="stop-color:#48407C"/>
		<stop  offset="1" style="stop-color:#65C8D0"/>
	</linearGradient>
	<path class="st29" d="M3529.8,3843.7c-2.6,10.9-5.2,15.2-7.2,16.8s-3.4,0.4-3.4,0.4H3283c0,0-3.1-35,22.1-50.9
		c24-15.2,76.5-22.9,100.3-34.6c-5.6,46.1,80.4,16.7,120.4,0.6C3527,3799.8,3534,3826,3529.8,3843.7z"/>
	<path class="st30" d="M3523.6,3861.4v13.7h-240.8l0.1-14.1h236.2c0,0,1.4,1.2,3.4-0.4L3523.6,3861.4z"/>
	<path class="st11" d="M3866.3,3765.7c-5.8,21.4-14,42-24.6,61.5l-0.4,16.3c24.8-27,49.6,9.6,49.6,9.6c18.9-6.6,36.5-39.5,46.1-60.6
		l0,0c-3.8-10.3-6.6-18.9-8.8-26.2C3900.5,3780.3,3880.4,3776.1,3866.3,3765.7z"/>
	<path class="st16" d="M3928.1,3766.3c-2.3-7.9-3.8-14.1-4.7-19c-2.5-13.3-0.9-16.9-0.9-16.9l-10.1,5.9h-39.7c0,0-0.5,4-1.9,10.7
		c0,0.1,0,0.2-0.1,0.2v0.1c-1,4.9-2.4,11.2-4.4,18.5C3880.4,3776.1,3900.5,3780.3,3928.1,3766.3z"/>
	
		<linearGradient id="SVGID_15_" gradientUnits="userSpaceOnUse" x1="3971.6477" y1="1268.3464" x2="3722.1577" y2="928.6064" gradientTransform="matrix(1 0 0 -1 0 5000)">
		<stop  offset="0" style="stop-color:#48407C"/>
		<stop  offset="1" style="stop-color:#65C8D0"/>
	</linearGradient>
	<path class="st31" d="M3952.3,3858.3c-7.7,10.5-17.5,19.3-28.7,25.9c-22.1,12.8-10.2,11.5-40.7,57.1
		c-23.5,35.1-90.5,5.3-119.9-10.2c-0.7-11.5,1.8-24.9,21.1-38c25.9-17.7,44.4-41.8,57.6-65.9l-0.4,16.3c24.8-27,49.6,9.6,49.6,9.6
		c18.9-6.6,36.5-39.5,46.1-60.6c1,2.8,2.1,5.7,3.3,8.7C3949.5,3825.5,3953,3844,3952.3,3858.3z"/>
	<path class="st30" d="M3952.3,3858.3c-1.1,20.4-10.9,32.3-24.8,40.7c-23.6,14.3-16.9,44.7-46.4,68.3
		c-29.5,23.6-115.6-7.6-116.4-21.1c-0.3-4.4-1.4-9.6-1.7-15.2c29.4,15.5,96.4,45.3,119.9,10.2c30.5-45.6,18.6-44.2,40.7-57.1
		C3934.8,3877.6,3944.5,3868.8,3952.3,3858.3z"/>
	<path class="st32" d="M3521.7,3734.5l-80.9-9.2c-51.4-203.7-63.7-411.4-95.3-616.7c8-385.8,118.8-710.9,139.1-783
		c179.1,137.7,392.9,37.6,396.8,36c-220.4,178.4-313.7,487-350.4,766.5C3531.1,3447.6,3521.7,3734.5,3521.7,3734.5z"/>
	<path class="st33" d="M3509,2292.5l-17.8,25c0,0,92.2,90.8,258.3,833.7c36.8,164.6,56.4,358.9,100.2,593.6l73.4-0.4
		c0,0,49.2-494.9-41.8-652.4c15.9-304.6,21.1-557,0-730.4c0,0-157-54.8-164.6-54.8S3509,2292.5,3509,2292.5z"/>
	<path class="st34" d="M3918.1,3745l-7.1-0.4c10-161.9-245.8-1426.5-248.4-1439.3l7-1.4C3672.2,2316.6,3928.1,3582.2,3918.1,3745z"
		/>
	<path class="st35" d="M3502.4,3732.8c-26-157.9-37.1-317.5-32.8-474.2c3.4-125.4,16.6-249.3,39.1-368.2
		c30.7-162.1,73.6-282.4,92-323.4l6.5,2.9c-18.3,40.8-61,160.6-91.6,322.1c-35.3,186.3-65,483.1-6.2,839.6L3502.4,3732.8z"/>
	
		<linearGradient id="SVGID_16_" gradientUnits="userSpaceOnUse" x1="3551.4106" y1="2539.8521" x2="3754.7405" y2="3358.4521" gradientTransform="matrix(1 0 0 -1 0 5000)">
		<stop  offset="0" style="stop-color:#F15A24"/>
		<stop  offset="1" style="stop-color:#F9A662"/>
	</linearGradient>
	<path class="st36" d="M3889.7,2441.5c-3.9,1.6-239.6,95.3-418.7-42.4c-2.9-2.2-5.9-4.5-8.8-6.9c0,0,66.2-152.1,45.5-332.8
		c-1.7-15.1-4.1-30.5-7.1-46c-5.6-28.7-13.5-56.9-23.7-84.4c-3.1-8.4-6.5-16.8-10.1-25.1c-5.4-12.6-94.2-188.4-21.2-334.6l115.5,3.6
		l53.8-3.6l20.7,13.9c0,0,133.5,6.4,201.2,48.3c14.6,9,26.6,19.1,34.4,30.4c0.5,0.7,1,1.4,1.4,2.1c0,0,1.1,13.8,2.6,40.3
		c5.1,89,15.1,321.7,6.3,657.2L3889.7,2441.5z"/>
	<path class="st11" d="M3686.2,1415.9c-7.5,35.8-35.8,26.1-35.8,26.1c-1.2,1.8-2.6,3.5-4.2,5c-2.6,2.7-5.3,5.1-8.3,7.4
		c-15.1,11.8-35.3,20.8-35.3,20.8c-17.9,5.8-33.1,8.6-45.7,8.9c-89.5,2.2-55.8-119.7-32.1-183.4c8.4-22.5,15.5-37.8,15.5-37.8
		c36.2,30.1,84.9,18.1,84.9,18.1c4.9,26.1,38.5,35.8,38.5,35.8l-6.6,81.8c0,0,6.6-9.7,11.5-11.5S3693.7,1380.1,3686.2,1415.9z"/>
	<path class="st37" d="M3803,1316c-13.3,11.3-28.5,41.4-19.9,57.5s-15.9,42-38.5,41.3s-18.2,25-18.6,31.2s-24.8,38.5-44.7,34
		s-35.8-5.7-38.9,4c-0.1,0.3-0.2,0.6-0.4,0.9c-1.6,1.8-3.1-15.1-4.1-30.5c2.9-2.2,5.7-4.7,8.3-7.4c1.5-1.5,2.9-3.2,4.2-5
		c0,0,28.3,9.7,35.8-26.1s-12.9-30.5-17.7-28.7s-11.5,11.5-11.5,11.5l6.6-81.8c0,0-33.6-9.7-38.5-35.8c0,0-48.7,12-84.9-18.1
		c0,0-7.1,15.3-15.5,37.8c0,0-42.9-19.2-37.2-60.8s26.1-36.7,29.4-50.6s-8-27.9,3.3-47.1s43.4-39.8,72.8-19.9s51.3,15.9,57.2,9.3
		s82.9-53.1,120.1,27.2c8.6,27.2,22.6,38.5,32.5,41.1S3875.3,1248.9,3803,1316z"/>
	<path class="st11" d="M3102.1,1373.5l83.6,74.3l41.1,136.7l-37.2,23.9c0,0-45.1-110.2-77-126.1S3046.4,1396,3102.1,1373.5z"/>
	<path class="st16" d="M3631.6,1515.8c1-4.3,2.3-8.6,3.8-12.8c2.6-7.2,4.8-13.2,6.7-18.1c-1.6,1.8-3.1-15.1-4.1-30.5
		c-15.1,11.8-35.3,20.8-35.3,20.8c-17.9,5.8-33.1,8.6-45.7,8.9l-2.1,3.1c2.2,8.8,3.8,17.7,4.9,26.7
		C3576.5,1507.4,3601.8,1503.1,3631.6,1515.8z"/>
	<path class="st11" d="M3631.6,1515.8c-29.8-12.8-55.1-8.4-71.8-2c2.3,18.2,3.1,42.3-4.1,60.8c-0.2,0.5-0.4,1-0.6,1.5
		c-0.1,0.1-0.1,0.2-0.2,0.4c-14.6,34.1,54,49.6,86.3,19.5c0,0-5.6-9.4-9.3-24.9C3627.3,1553,3627.3,1534,3631.6,1515.8z"/>
	<path class="st27" d="M3871.1,1662c-49.5,50.6-258.4,271.8-316.2,312.3c-22,15.4-39,29.7-54.3,39.2c-29.6,18.2-53.2,18.3-95.5-26.9
		c-55.4-59.3-190.6-350.3-226.7-429.2l37.4-19.7c10.6,51.3,237.1,408.7,237.1,408.7c4.3-2,13.1-8.6,25.8-15.7
		c84.5-47.2,242.3-223.4,311.6-278c19.2-15.1,34.4-21,46.4-21.1C3851.3,1640.6,3863.3,1650.7,3871.1,1662z"/>
	<path class="st28" d="M3876.3,1727.5c-38.9,68.5-228.3,271.6-351.6,343.5c-32.5,19-71.4,26.6-88,20.4c-84.9-31.8-281-522-281-522
		l22.7-12c36,78.8,171.2,369.9,226.7,429.2c42.3,45.2,65.9,45.2,95.5,26.9c15.3-9.4,32.3-23.8,54.3-39.2
		c57.8-40.5,266.8-261.7,316.2-312.3c0.5,0.7,1,1.4,1.4,2.1C3872.5,1664.1,3874.8,1701,3876.3,1727.5z"/>
	
		<linearGradient id="SVGID_17_" gradientUnits="userSpaceOnUse" x1="1363.7" y1="2064.5056" x2="3762.6201" y2="2064.5056" gradientTransform="matrix(1 0 0 -1 0 5000)">
		<stop  offset="0" style="stop-color:#3E619E"/>
		<stop  offset="0.53" style="stop-color:#F2F2F2"/>
		<stop  offset="1" style="stop-color:#718BC6"/>
	</linearGradient>
	<path class="st38" d="M3762.6,2775.9h-2.4c-0.4-16.2-12.6-33.1-36.9-47.1l-653-377.4c-51.8-30-141.1-40.2-198.3-22.7l-1459.4,444.8
		c-31.5,9.6-47.8,26.9-48,46.3l-0.8,0.1v141.5h0.9c-1.5,16.6,9,35.1,32.1,51.7l698.6,502.8c48.6,35,133.8,45.4,189.4,23.2
		L3716.4,2968c4.7-1.9,9.3-4,13.7-6.5h2.5l1.7-2.5c16.7-10.4,25.3-23.4,25.8-36.9l2.5-3.6L3762.6,2775.9z"/>
	<path class="st39" d="M3723.2,2728.8c51.8,29.9,48.7,72.6-6.9,94.8l-1431.7,571.2c-55.6,22.2-140.8,11.7-189.4-23.2l-698.6-502.8
		c-48.6-35-41.5-77.8,15.8-95.3l1459.4-444.8c57.2-17.5,146.5-7.2,198.3,22.7L3723.2,2728.8z"/>
	
		<linearGradient id="SVGID_18_" gradientUnits="userSpaceOnUse" x1="1486.49" y1="2140.9448" x2="3641.4099" y2="2140.9448" gradientTransform="matrix(1 0 0 -1 0 5000)">
		<stop  offset="0" style="stop-color:#5471A9"/>
		<stop  offset="1" style="stop-color:#57B4E0"/>
	</linearGradient>
	<polygon class="st40" points="1486.5,2806.5 2263.2,3355 3641.4,2802.8 2885.6,2363.1 	"/>
	
		<linearGradient id="SVGID_19_" gradientUnits="userSpaceOnUse" x1="2638.5681" y1="2434.625" x2="2638.5681" y2="3064.105" gradientTransform="matrix(1 0 0 -1 0 5000)">
		<stop  offset="0" style="stop-color:#CCCCCC"/>
		<stop  offset="1" style="stop-color:#FFFFFF"/>
	</linearGradient>
	<path class="st41" d="M2878.7,2002.3c-82.9-11.4-161.1-35.8-234.1-74.7c-4.3-2.3-7.3-2.1-11.4,0.1
		c-75.2,40.1-155.9,64.7-241.3,75.5c-5.6,0.7-7.3,2-7.1,7.5c2.3,54.1,4.4,108.1,6.3,162.2c1,29,2.3,58,8.6,86.4
		c29.7,133.8,107.9,233.9,234.6,300.5c3.6,1.9,6.1,1.4,9.4-0.3c54.9-28,102.2-64.7,141.1-110.9c58.2-69.2,91.6-147.8,98.7-235.9
		c2.7-32.9,3.4-65.9,5-98.9h-0.2c1.3-32.2,2.6-64.4,3.9-96.6C2892.7,2004.1,2892.6,2004.3,2878.7,2002.3z"/>
	<path class="st42" d="M2858.7,2026.4c-75.1-11.9-146.5-34.3-213.8-68.1c-4.6-2.3-7.7-2.1-12.1,0.1c-67.2,33.8-138.6,56.2-213.8,68
		c-4.2,0.7-5.2,2.1-5,5.9c1.2,28.2,2.2,56.4,3.3,84.6h1.5c0,13-0.2,26.1,0,39.1c0.8,41.9,3,83.6,14.8,124.3
		c31.3,108.5,98.1,191.5,200.5,249.1c3.4,1.9,5.9,1.9,9.4,0c16.8-9.4,33.1-19.5,48.4-31.1c100.6-76.3,155.7-175.4,164.2-296.8
		c4-56.7,5-113.5,7.6-170.3C2863.8,2027.3,2861.9,2026.9,2858.7,2026.4z"/>
	
		<linearGradient id="SVGID_20_" gradientUnits="userSpaceOnUse" x1="2443.3313" y1="2756.991" x2="2834.2078" y2="2756.991" gradientTransform="matrix(1 0 0 -1 0 5000)">
		<stop  offset="0" style="stop-color:#F15A24"/>
		<stop  offset="1" style="stop-color:#F9A662"/>
	</linearGradient>
	<path class="st43" d="M2829,2048.3c-64.3-12-126.8-32.5-185.8-60.8c-3.5-1.7-5.8-1-8.9,0.4c-58.9,28-121.2,48.3-185.4,60.4
		c-4.3,0.8-5.7,2.3-5.5,6.7c1.4,31.4,2.4,62.9,3.7,94.3c1.3,31.2,1.1,62.6,7.2,93.5c21.5,109.3,81.5,194.4,180.2,255.2
		c3.2,2,5.4,2,8.6,0c29.5-17.7,56.6-39.2,80.5-64c56.3-58.7,90.1-127.3,101.5-205.8c4.6-31.9,3.6-64,5.4-88.3
		c1.5-33.5,2.4-59.4,3.8-85.3C2834.4,2050.6,2833.2,2049.1,2829,2048.3z"/>
	<path class="st44" d="M2638.3,2350.7c-25.2,0-50.4,0.1-75.6-0.1c-2.9,0-5.8-0.6-8.4-1.7c-4.9-2.3-7.4-6.4-7.4-12
		c0-46.5,0-93.1,0-139.6c0-7.8,5.9-13.5,14.2-13.7c4.8-0.1,9.7,0,14.5,0c46.2,0,92.4,0,138.6,0.1c3.1,0,6.2,0.7,9.1,2.1
		c4.5,2.2,6.9,6.1,6.9,11.3c0,46.6,0,93.2,0,139.9c0.1,7.5-5.9,13.6-13.4,13.7c-3.7,0.1-7.5,0-11.2,0L2638.3,2350.7z M2628,2283
		v13.5c0.1,6.6,4.3,11.3,10.4,11.3c6.1,0,10.6-4.6,10.6-11.4c0-9.1,0-18.2,0-27.2c-0.1-1.5,0.6-2.9,1.9-3.6
		c8.7-5.2,13.1-15.4,10.9-25.4c-2.8-12.9-15.5-21.1-28.3-18.3c-12.9,2.8-21.1,15.5-18.3,28.3c1.4,6.4,5.3,12,10.9,15.4
		c1.3,0.6,2,1.9,1.9,3.3C2628,2273.7,2628,2278.4,2628,2283z"/>
	<path class="st44" d="M2712,2171.4c-0.4,0.1-0.9,0.2-1.3,0.2h-27.4v-3c0-13.3,0.1-26.5,0-39.8c0.1-22.5-16.2-41.6-38.4-45.1
		c-25.5-4.3-50.6,14.8-52.3,40.6c-0.9,13.8-0.3,27.7-0.4,41.5c0,1.8,0,3.6,0,5.7h-28.5c-0.1-0.5-0.2-0.9-0.2-1.4
		c0-14.8-0.3-29.5,0.1-44.3c1-34.1,25.9-63.2,59.4-69.9c37.6-7.5,74.7,14.5,85.7,51.1c1.9,6.6,3,13.5,3.2,20.4
		c0.5,14.1,0.2,28.2,0.2,42.3C2712.1,2170.2,2712,2170.7,2712,2171.4z"/>
	
		<linearGradient id="SVGID_21_" gradientUnits="userSpaceOnUse" x1="1826.7272" y1="2389.0249" x2="2416.1499" y2="2389.0249" gradientTransform="matrix(1 0 0 -1 0 5000)">
		<stop  offset="0" style="stop-color:#6B9AE8"/>
		<stop  offset="1" style="stop-color:#E7F0FF"/>
	</linearGradient>
	<path class="st45" d="M2416.1,2620.4h-0.2c1.5-8.9-4.1-18.6-16.8-26.8l-211.8-136c-24.6-15.8-67-20.2-94.3-9.8l-244.3,93.2
		c-15.2,5.8-22.6,15-22,24.7v37.6c-0.5,8.4,5.1,17.4,17,25.1l211.8,136c24.6,15.8,67,20.2,94.3,9.8l244.3-93.2
		c14-5.3,21.4-13.6,21.9-22.5h0.1L2416.1,2620.4z"/>
	<path class="st0" d="M2399.1,2593.6c24.6,15.8,22.4,37.2-4.9,47.6l-244.3,93.2c-27.3,10.4-69.7,6-94.3-9.8l-211.8-136
		c-24.6-15.8-22.3-37.2,4.9-47.6l244.2-93.1c27.3-10.4,69.7-6,94.3,9.8L2399.1,2593.6z"/>
	<path class="st46" d="M1991.1,2614.9c0.6,6.4,1.2,12.8,1.9,19.2c0.2,2.3-1.6,3.9-4.8,4.1c-3.5,0.2-5.9-1.1-6.3-3.5
		c-3.6-23.3-0.8-47.2,8-69.1c13-32.7,59.5-57.9,114.7-62.2c71.7-5.6,136.9,20.9,154.2,62.8c5.3,12.9,4.9,25.8,0.2,38.7
		c-3.6,9.8-1.8,19.4,4.6,28.6c2.1,3.1,1.6,5-1.9,5.8c-3.4,0.8-6.2-0.1-8.4-3.2c-7.9-11.3-9-22.8-4.7-34.8
		c15-41.8-31.1-83.1-101.1-90.9c-69.4-7.7-134.2,18.8-148.5,60.6C1994.2,2585.2,1991.5,2600,1991.1,2614.9z"/>
	<path class="st46" d="M2044.6,2614.8c0.1,18.5,4.8,36.6,14.4,54.2c0.4,0.6,0.7,1.2,1,1.9c0.7,2-1,3.6-3.8,4.1
		c-2.8,0.5-5.8-0.4-6.8-2.3c-2.4-4.7-4.9-9.4-6.9-14.2c-11.8-28.7-12.3-57.4-0.4-86.1c9.5-22.7,45.1-38.6,83.4-37.9
		c40.8,0.8,74.5,17.6,82.4,40.9c2.9,8.5,1.1,16.8-1.5,25.2c-6.2,20.5,0.5,39.7,18.9,57.4c3.1,2.9,3,4.9-0.3,6.1
		c-3.3,1.2-6.1,0.4-9.1-2.5c-21.4-20.6-27.7-42.8-19.2-66.5c9-25.3-19.4-49.8-62-53.5c-38.7-3.4-74.9,12-83.3,35.5
		C2047,2589.2,2044.7,2601.9,2044.6,2614.8z"/>
	<path class="st46" d="M2097.8,2611.5c0,25.4,8.2,46.2,24,66c0.6,0.8,1.3,1.6,1.9,2.4c1.4,2,0.3,3.8-2.6,4.6s-5.8,0.2-7.3-1.6
		c-3.2-4.1-6.5-8.2-9.3-12.4c-13.5-20.2-19.5-41.2-17.4-62.9c1.1-8.9,3.1-17.6,6-26c3.4-10.5,20.7-16.8,38.2-14.6
		c16.7,2.1,27.9,12.2,24.4,22.4c-3.7,11.1-5.7,22.1-4.2,33.5c2.3,18,11.1,34.7,26.6,50.1c0.4,0.4,0.8,0.8,1.2,1.2
		c2.1,2.1,1.6,4-1.2,5.1c-2.9,1.2-6.2,0.5-8.3-1.7c-5.4-6.2-11.3-12.3-15.7-18.8c-12.6-18.4-16.6-37.6-12.9-57.4
		c0.9-4.2,2-8.4,3.5-12.4c2.5-7.3-4.4-14.1-16.1-15.6c-11.5-1.5-22.5,3-25,10.2C2099.8,2593.9,2097.8,2604.4,2097.8,2611.5z"/>
	<path class="st46" d="M2123.2,2486.6c15.2,0,30.4,1.2,45.4,3.7c4.2,0.7,6,2.2,5.1,4.3s-3.8,2.8-8,2.1c-58-8.7-108.5-0.6-151.6,24.3
		c-1.9,0.9-4,1.3-6.1,1.2c-1.5-0.1-3.7-1.5-3.8-2.3c-0.1-1.2,0.9-2.8,2.4-3.6c12.7-7.9,27.4-14.3,43.7-19.2
		C2074.1,2490.1,2098.6,2486.6,2123.2,2486.6z"/>
	<path class="st46" d="M2290.3,2585.9c-1.6,7-3.1,14-4.9,21c-0.6,2.4-3.4,3.6-6.7,3.2c-3.3-0.4-4.9-2.1-4.1-4.5
		c6.2-17.6,4.4-34.8-5.9-51.7c-6.3-10.4-15.5-19.8-27.5-28.2c-0.4-0.3-0.9-0.6-1.3-0.9c-2-1.6-1.8-3.5,0.4-4.7
		c2.5-1.3,5.6-1.2,8,0.4c3.8,2.7,7.5,5.5,10.9,8.4c19.5,16.7,30,36.6,30,57L2290.3,2585.9z"/>
	<path class="st46" d="M2006.2,2614.7c1.3-9.2,2.6-18.4,4-27.5c0.2-1.4,1.1-2.5,2.4-3.1c1.8-0.6,3.8-0.8,5.7-0.4
		c1.5,0.5,2.9,2,2.9,3c0,2.6-0.8,5.2-1.3,7.8c-2.8,14.8-2.5,29.9,0.8,44.6c1.3,5.7,3.2,11.3,4.9,17c0.2,0.6,0.4,1.2,0.6,1.8
		c0.4,2-1.3,3.5-4.3,3.9c-2.9,0.4-5.7-0.7-6.4-2.7c-1.4-4-2.8-8-4-12c-3-10.5-4.4-21.4-4.4-32.3L2006.2,2614.7z"/>
	<path class="st46" d="M2015.2,2570.8c0.6-1.2,1.2-3,2.1-4.7c12.6-22.9,38.1-37.9,76.5-45c0.6-0.1,1.3-0.3,1.9-0.3
		c3.1-0.3,5.7,0.6,6.5,2.3c0.8,1.7-0.5,3.4-3.6,4.1c-6.3,1.5-12.9,2.6-18.9,4.4c-27.5,8.4-45.3,21.6-53.2,39.5
		c-0.2,0.5-0.4,1-0.7,1.5c-1,1.7-3.4,2.5-6.3,2.2S2015,2573.2,2015.2,2570.8z"/>
	<path class="st46" d="M2060.1,2622.7c0-1.5,0-2.9,0-4.4c0-2.4,2.1-3.9,5.5-4c3.4-0.1,5.5,1.4,5.7,3.9c0.4,4.3,0.7,8.5,1.4,12.8
		c2.4,15.3,8.7,30,18.3,44.1c0.5,0.8,1.1,1.5,1.5,2.2c1.2,2.1,0.1,3.9-2.8,4.6c-3.1,0.8-6.2,0-7.5-2.1c-3.9-6.4-8.1-12.9-11.4-19.4
		C2064.9,2648.5,2061.3,2635.8,2060.1,2622.7z"/>
	<path class="st46" d="M2131.4,2518.6c36.3,1.9,65.2,11.6,85.9,29.8c2.3,2,1.8,4-0.9,5.1c-2.8,1.1-6,0.6-8.3-1.4
		c-14.2-12.5-33.2-20.9-57.6-24.8c-6.1-1-12.4-1.3-18.7-2c-1.6-0.2-3.4-0.1-5-0.4c-2.8-0.5-4.2-1.7-3.9-3.5s1.9-2.7,4.7-2.9
		C2128.9,2518.6,2130.1,2518.6,2131.4,2518.6z"/>
	<path class="st46" d="M2113.3,2614.9c-0.1-9.8,1.7-19.6,5.1-28.8c0.6-1.5,1.8-2.6,3.3-3.2c1.8-0.5,3.7-0.4,5.4,0.2
		c1.4,0.7,2.4,2.3,2.2,3.4c-0.5,3.1-1.8,6.2-2.6,9.3c-3.8,14.6-3.1,29.1,1.5,43.6c0.8,2.6-0.7,4.2-4.2,4.6c-3.4,0.4-5.8-0.9-6.7-3.5
		C2114.7,2632.3,2113.3,2623.6,2113.3,2614.9z"/>
	<path class="st46" d="M2236.9,2585.1c-1.3,5.6-2.5,10.5-3.6,15.4c-1,4.3-1.9,8.6-2.7,12.9c-0.4,2.3-2.4,3.6-5.8,3.5
		s-5.6-1.5-5.1-3.8c0.9-5.6,2.1-11.2,3.6-16.6c2.6-8.8,1.9-18.2-1.9-26.6c-1.4-3.1-0.5-4.9,2.9-5.5c3.9-0.7,6.7,0.5,7.8,3.8
		C2234.1,2574,2235.5,2579.7,2236.9,2585.1z"/>
	<path class="st46" d="M2206,2670.4c-1.3,0.9-2.4,2-4,2.6c-2.1,0.7-4.5,0.4-6.3-0.9c-1.5-1.2-3-2.6-4.4-4
		c-10-10-17.2-20.6-21.1-32.1c-0.8-2.4,0.7-4.1,3.9-4.5c3.2-0.4,6,0.8,6.9,3.1c4.2,11.9,12,22.9,23,33.1
		C2204.7,2668.5,2205.4,2669.4,2206,2670.4z"/>
	<path class="st46" d="M2000.8,2529.6c-0.7,1-1.5,2-2.4,2.9c-11.4,9.8-19.4,20.5-23.9,32.2c-0.9,2.4-3.6,3.6-6.8,3.2
		c-3.5-0.5-5-2.2-4-4.7c4.9-12.6,13.5-24.1,25.9-34.7c1.9-1.7,4.6-2.3,7.1-1.6C1998.3,2527.4,1999.4,2528.6,2000.8,2529.6z"/>
	<path class="st46" d="M2181.2,2577.2c-0.1,2.2-1.3,3.4-4.3,3.8c-2.9,0.4-5-0.3-6.2-1.9c-0.5-0.7-0.9-1.5-1.2-2.3
		c-5.9-9.7-17-16-33.7-18.8c-3.8-0.6-5.6-1.9-5.3-3.7c0.4-2.2,3.6-3.4,7.6-2.8c20.4,3.2,34.3,10.8,41.6,22.7
		C2180.3,2575.1,2180.8,2576.1,2181.2,2577.2z"/>
	<path class="st46" d="M2146.9,2683.6c-0.8-0.4-2.8-0.9-3.6-1.8c-8-8.1-14.7-17.3-20-27.5c-1.1-2,0.4-3.9,3.3-4.4
		c3.2-0.6,6.1,0.3,7.3,2.4c5.1,9.5,11.5,18.4,19,26.2C2155.1,2681,2152.5,2683.7,2146.9,2683.6z"/>
	<path class="st46" d="M2165.5,2614.6c1.6-7.3,3.2-14.5,5-21.8c0.6-2.6,3.4-3.8,6.8-3.4s4.9,2.2,4,4.7c-3.1,8.6-4.3,17.8-3.4,26.9
		c0.1,0.5,0.1,0.9,0.1,1.4c-0.2,1.9-2.4,3.2-5.4,3.2c-2.7,0-5.2-1.2-5.4-2.9c-0.4-2.6-0.6-5.3-0.8-8L2165.5,2614.6z"/>
	<path class="st46" d="M2059.9,2603.9c2.3-8.6,4.6-17.1,7-25.7c0.6-2.1,3.6-3.2,6.5-2.8c3.2,0.4,4.8,2.1,4.3,4.3
		c-2.1,8.5-4.1,17-6,25.6c-0.7,2.9-2.5,4.2-6,4.1c-3.5-0.1-5.2-1.6-5-4.5l0.1-0.8L2059.9,2603.9z"/>
	<path class="st46" d="M2232.6,2511.8c-0.1,3-3.9,4.6-7.5,3.7c-0.9-0.2-1.7-0.6-2.5-1c-11.1-5.4-22.7-9.8-34.6-13.1
		c-1.6-0.5-3.6-1.4-3.9-2.4c-0.3-1.3,0.4-2.7,1.6-3.3c2-0.7,4.2-0.8,6.4-0.4c9.8,3.1,19.4,6.5,28.9,9.9c3.2,1.2,6.2,2.7,9.2,4.3
		C2231,2510.2,2231.8,2511,2232.6,2511.8z"/>
	<path class="st46" d="M2248,2650.8c-1.2,0.8-2.2,2-3.9,2.5c-2.1,0.7-4.5,0.4-6.3-0.9c-1.2-1-2.4-2.2-3.5-3.4
		c-5.9-6.2-10.3-13.6-12.9-21.8c-0.6-2.1,1-3.8,4-4.2c3.4-0.5,6.3,0.6,7,3c2.4,8,7.1,15.4,14.1,22.4
		C2247.1,2649.1,2247.6,2649.9,2248,2650.8z"/>
	<path class="st46" d="M2082,2569.8c-1.7-0.8-3.5-1.4-4.5-2.3c-1.5-1.3-0.7-2.7,0.9-3.9c7-5,14.9-8.5,23.2-10.4
		c2.4-0.6,4.8-1.1,7.2-1.5c3.2-0.5,5.9,0.4,6.8,2.2s-0.4,3.5-3.7,4.1c-10.2,1.8-18.7,5.1-25.5,10.1
		C2085.7,2568.8,2083.9,2569.1,2082,2569.8z"/>
	
		<linearGradient id="SVGID_22_" gradientUnits="userSpaceOnUse" x1="2254.6372" y1="2088.0352" x2="2844.0701" y2="2088.0352" gradientTransform="matrix(1 0 0 -1 0 5000)">
		<stop  offset="0" style="stop-color:#6B9AE8"/>
		<stop  offset="1" style="stop-color:#E7F0FF"/>
	</linearGradient>
	<path class="st47" d="M2844.1,2921.4h-0.2c1.5-8.9-4.1-18.6-16.8-26.8l-211.8-136c-24.6-15.8-67-20.2-94.3-9.8l-244.3,93.2
		c-15.2,5.8-22.6,15-22,24.7v37.6c-0.5,8.4,5.1,17.4,17,25.1l211.8,136c24.6,15.8,67,20.2,94.3,9.8l244.3-93.2
		c14-5.3,21.4-13.6,21.9-22.5h0.1L2844.1,2921.4z"/>
	<path class="st0" d="M2827,2894.6c24.6,15.8,22.4,37.2-4.9,47.6l-244.3,93.2c-27.3,10.4-69.7,6-94.3-9.8l-211.8-136
		c-24.6-15.8-22.4-37.2,4.9-47.6l244.3-93.2c27.3-10.4,69.7-6,94.3,9.8L2827,2894.6z"/>
	<path class="st48" d="M2639.3,2853.9l64.2,41.3c10.4,6.7,20.9,13.4,31.4,20.1c8,5.1,8.8,11.6,2,16c-1.1,0.7-2.4,0.9-3.6,0.5
		c-49.8-9.3-99.7-18.5-149.5-27.7c-5.6-1-11.2-2.3-16.8-3.3c-12.7-2.4-21.7-7-28.4-13c-3.6-3.1-5.7-6.4-6.6-9.9
		c-3.2-13.4-6.6-26.8-9.6-40.2c-3.6-16-6.8-32-10.2-47.9c-0.2-0.9,0.2-1.3,1.6-1.6c9.9-2.2,22.6-0.4,30.3,4.5
		c17.6,11.3,35.2,22.6,52.7,33.9L2639.3,2853.9L2639.3,2853.9z"/>
	<path class="st48" d="M2461.4,2919.2l-67.8-43.5c-7.8-5-15.4-10-23.2-14.9s-8.3-11.5-1.5-15.9c0.9-0.6,2.1-0.8,3.1-0.4
		c48.1,8.9,96.2,17.8,144.2,26.7c1.6,0.3,2.2,0.7,2.5,1.6c1.2,3.8,1.8,7.6,4.2,11.3c6,9.1,17.2,16.4,34.3,21
		c5.5,1.5,11.5,2.5,17.2,3.6c1.4,0.3,1.9,0.6,2.1,1.3c5.6,25.6,11.1,51.3,16.8,76.9c0.1,0.6-0.2,0.9-1.2,1.2
		c-10,2.5-23.1,0.5-31-4.6c-18-11.6-36.1-23.2-54.2-34.8L2461.4,2919.2z"/>
	<path class="st48" d="M2724.5,2936.5l-119.8,46.8c-5.2-24-10.4-48-15.6-71.9L2724.5,2936.5z"/>
	<path class="st48" d="M2500.9,2793c5.2,24.1,10.4,48,15.6,71.9l-135.5-25L2500.9,2793z"/>
	
		<linearGradient id="SVGID_23_" gradientUnits="userSpaceOnUse" x1="2732.7271" y1="2268.2612" x2="3322.1599" y2="2268.2612" gradientTransform="matrix(1 0 0 -1 0 5000)">
		<stop  offset="0" style="stop-color:#6B9AE8"/>
		<stop  offset="1" style="stop-color:#E7F0FF"/>
	</linearGradient>
	<path class="st49" d="M3322.2,2741.2h-0.2c1.5-8.9-4-18.6-16.8-26.8l-211.8-136c-24.6-15.8-67-20.2-94.3-9.8l-244.3,93.2
		c-15.2,5.8-22.6,15-22,24.7v37.5c-0.5,8.4,5.1,17.4,17,25.1l211.8,136c24.6,15.8,67,20.2,94.3,9.8l244.3-93.1
		c14-5.4,21.4-13.6,21.9-22.5h0.1L3322.2,2741.2z"/>
	<path class="st0" d="M3305.1,2714.4c24.6,15.8,22.3,37.2-4.9,47.6l-244.3,93.2c-27.3,10.4-69.7,6-94.3-9.8l-211.8-136
		c-24.6-15.8-22.4-37.2,4.9-47.6l244.2-93.1c27.3-10.4,69.7-6,94.3,9.8L3305.1,2714.4z"/>
	<path class="st50" d="M3177.7,2657.4c0,19.8-25.1,35.8-56.1,35.8s-56.1-16-56.1-35.8c0-19.8,25.1-35.8,56.1-35.8
		S3177.7,2637.6,3177.7,2657.4z"/>
	<polygon class="st50" points="2944,2779.3 2859.1,2728.9 3026.9,2664.2 3111.8,2714.5 	"/>
	<polygon class="st51" points="3254.9,1916.8 2834.2,1798.2 2834.2,1158.6 3254.9,1277.1 	"/>
	<polygon class="st52" points="3004.2,1414.9 2854.9,1373.5 2854.9,1190 3004.2,1231.4 	"/>
	<path class="st53" d="M2980.8,1298.9c1.3,37.9-20.6,69.4-48.9,70.4s-52.3-29-53.6-66.9s20.6-69.4,48.9-70.4
		S2979.5,1261,2980.8,1298.9z"/>
	<polygon class="st53" points="3234.1,1341.9 3014.4,1280.4 3014.4,1265.5 3234.1,1327 	"/>
	<polygon class="st53" points="3234.1,1383.7 3014.4,1322.2 3014.4,1307.3 3234.1,1368.8 	"/>
	<polygon class="st53" points="3234.1,1425.5 3014.4,1364 3014.4,1349.1 3234.1,1410.6 	"/>
	<polygon class="st53" points="3234.1,1467.3 3014.4,1405.8 3014.4,1390.9 3234.1,1452.4 	"/>
	<polygon class="st53" points="3213.9,1574.5 3068.6,1534.1 3068.6,1519.2 3213.9,1559.6 	"/>
	<polygon class="st53" points="3213.9,1625.9 3068.6,1585.5 3068.6,1570.6 3213.9,1610.9 	"/>
	<polygon class="st53" points="3213.9,1677.2 3068.6,1636.9 3068.6,1622 3213.9,1662.3 	"/>
	<polygon class="st53" points="3213.9,1728.6 3068.6,1688.2 3068.6,1673.3 3213.9,1713.7 	"/>
	<g class="st54">
		<path class="st55" d="M2967.1,1468.3c7.1-0.2,14.1,0.8,20.9,3c29.1,9.4,50.1,31.3,62.7,65.9c6.1,16.7,8.4,34.3,7.7,52.6
			c-0.3,8.3-1.3,16.5-3.1,24.6c-0.2,0.8-0.4,1.5-0.7,2.2c-0.7,0.7-1.3,0.1-1.9-0.1c-1.4-0.5-2.8-1-4.1-1.5
			c-3.8-1.6-7.8-2.8-11.6-4.3c-2.1-0.8-2.3-1.2-1.8-3.9c1.7-8,2.5-16.1,2.3-24.2c-0.6-22.4-6.6-42.2-18.6-58.8
			c-10.3-14.2-22.9-23.2-37.7-27.1c-3.9-1.1-7.9-1.7-12-1.7c-2.3,0-2.6-0.4-2.6-3.3c0-5.2,0-10.4,0-15.6c-0.1-1.9,0-3.7,0-5.6
			C2966.5,1469.7,2966.6,1468.9,2967.1,1468.3z"/>
		<path class="st56" d="M2883.7,1536.5c-0.2-1-0.7-1.9-1.3-2.8c-3.1-4.6-3.8-10-3-15.7c0.8-6.6,4-11.1,8.6-13.7
			c3.5-2,7.8-2.2,11.4-0.4l1.3,0.6c1.1,0.2,2,0.8,2.7,1.7c0.9,1.1,2,2.1,3.1,2.9c0.5,1.6,1.1,3.2,1.7,4.8
			c3.6,10.3-0.5,22.6-9.3,26.4c-3,1.2-6.3,1.3-9.4,0.3C2887.4,1539.5,2885.4,1538.1,2883.7,1536.5z"/>
		<path class="st57" d="M2915.7,1488.3c-0.7-6.3,0.3-11.9,3.7-16.9c4.8-7,13.8-8.3,19.7-2.7c1.2,1.1,2.3,2.4,3.4,3.7
			c1.7,2.2,2.8,4.8,3.1,7.6c1.9,8.6-2.5,18.7-8.8,22.1c-5.6,3.1-14.2,1.8-18.7-6.2c-0.7-1.7-1.7-3.1-2.1-4.9
			C2915.6,1490.2,2915.5,1489.2,2915.7,1488.3z"/>
		<path class="st58" d="M2971.4,1454.4c22.4,1.4,42.4,10.8,59.9,28.5c2.6,2.6,5,5.4,7.4,8.3c0.8,0.9,1,1.5,0.1,2.6
			c-2.9,3.6-2.8,3.7-5.8,0.2c-15.3-17.7-33.2-28.5-53.9-31.7c-3.4-0.6-6.9-0.9-10.3-0.8c-1.1,0-1.6-0.2-1.6-1.9
			C2967,1454.3,2966.9,1454.3,2971.4,1454.4z"/>
		<path class="st59" d="M2880.5,1601.8c0,1.7,0,3.4,0,5.2c0,3.5,0.3,3.1-2.4,3.1c-4.1-0.6-8.1-1.3-11.4-4.9c-1-1.2-1.5-2.7-1.4-4.2
			c0-5.9,0-11.8,0-17.7c0-3.1,0.2-6.2,0-9.3c-0.4-3.1,1.1-6.1,3.9-7.6c1.9-1.1,3.9-1.9,6.1-2.2c1,0,1.9-0.8,2.1-1.8
			c1.7,1.4,3.6,0.6,5.4,0.5c0.3,0,0.6-0.3,1-0.2c1.1,0.4,2.2,0.8,3.4,1c1.6,0.4,3.2,0.9,4.6,1.7c3.9,2.1,4.9,3.8,4.8,9.1
			c0,2.5,0.4,5.1-0.4,7.6c-0.1,0.2-0.3,0.2-0.5,0.1c0,0,0,0,0,0c-0.8-2.4-0.3-4.9-0.3-7.2c-1,1.4-2.3,2.5-3.8,3.2
			c-2.6,1.3-5.5,2.1-8.4,2.3c-1.5,0.1-1.8,0.9-1.8,2.6c0.2,1.7,0.1,3.4-0.3,5c-0.5,0.9-1.3,0.8-2.1,0.7c-4.8,0.1-9.4-1.8-12.8-5.1
			c0.2,1.3,1.1,1.9,1.5,3c0.5,1.5,0.1,3,0.1,4.5c0.1,2.1,1.4,3.9,3,4c1,0.1,0.8-0.9,0.9-1.6c0.2-1.4-0.4-3.1,0.6-4.3
			c2.9,0.2,5.8,0.7,8.6,1.6c0.7,2.6,0.4,5.2,0.2,7.8c-0.1,0.6-0.7,1-1.2,1c-5,0-9.8-0.9-13.8-5.2c0.1,1.8,1.7,2.2,2,3.8
			c-0.3,1.1-0.4,2.3-0.4,3.4c0,2.8,0.2,3.1,2.3,4.2c1.5,0.8,1.6,0.7,1.7-1.3c0.1-1.5-0.3-3.1,0.7-4.3
			C2875.1,1600.6,2877.9,1600.7,2880.5,1601.8z"/>
		<path class="st60" d="M3042.6,1664.4c-1.4,2.2-3,4.2-4.8,6.2c-1.1,1.3-2.4,1.3-3.5-0.1s-2.1-2.6-3.2-3.9c-2.1-1.5-3.6-4-5.3-6.2
			c-1.1-1.2-2.1-2.5-3-3.9c-0.7-0.9-1.1-1.9-1.4-3c-0.8-4.2-0.5-8.4-0.2-12.6c0-0.6,0.3-1.2,0.9-1.6c0.3-0.2,0.6-0.1,0.8,0.2
			c0,0,0.1,0.1,0.1,0.1c0.6,1,1.3,2,2.1,2.8c0,0.4-0.2,0.7-0.2,1c-0.3,1.8,0.2,2.5,1.6,2c0.3-0.1,0.5-0.2,0.8-0.3
			c1.2,0.3,1.6,1.8,2.4,2.7C3034,1653.5,3038.3,1658.9,3042.6,1664.4z"/>
		<path class="st61" d="M3042.6,1664.4c-0.6,0-1-0.6-1.4-1.1c-4.1-5.2-8.2-10.4-12.4-15.7c-0.5-0.7-1-1.4-1.5-2.1c0-2-1-2.9-2.5-3.2
			c-1.6,0-1.8-1.8-2.4-3.1c0.2-1.3,1-1.3,1.7-1.3c2.5-0.1,5.1-0.1,7.6,0c2.7,0.2,4.5,2.3,6.2,4.7c1.4,2.2,3.4,3.8,4.5,6.4l4,5.3
			c1.4,1.5,1.4,3.8,0,5.3C3045.2,1661.3,3043.9,1662.8,3042.6,1664.4z"/>
		<path class="st62" d="M3042.5,1649.1c-1.7-1.8-3.2-3.7-4.5-5.7c-0.1-0.8,0.1-1.6,0.6-2.2c3.9-7.8,6.9-16,9.1-24.5
			c0.2-0.8,0.2-1.8,1.1-2.1c2.1,0.3,3.9,1.5,5.9,2c-1.6,7.7-4.1,15.3-7.2,22.5C3046,1642.5,3044.4,1645.9,3042.5,1649.1z"/>
		<path class="st63" d="M2945.2,1479.9c-0.3-2.8-2-4.8-2.7-7.4c5.9-2.2,12-3.5,18.2-3.9c2.1-0.1,4.2-0.7,6.3-0.3
			c0,2.7-0.1,5.3-0.1,8c-0.4,0.6-1,0.9-1.7,0.7c-6.2,0.1-12.4,1.1-18.4,2.9C2946.3,1480.2,2945.7,1480.2,2945.2,1479.9z"/>
		<path class="st64" d="M2883.6,1562.7c-0.7,0.7-5.3,1.3-6,0.7c-0.2-0.2-0.2-0.8-0.3-1.2c1.1-7.9,2.9-15.6,5.4-23.2
			c0.3-0.9,0.6-1.7,0.9-2.6c1-0.7,1.4,0.6,1.9,1c1.2,1,2.8,1.3,3.7,2.9c0.2,0.6,0.1,1.3-0.1,1.9c-2,6.1-3.5,12.2-4.7,18.5
			C2884.2,1561.5,2884,1562.1,2883.6,1562.7z"/>
		<path class="st65" d="M2915.7,1488.3c0.4,2.7,1.7,4.9,2.6,7.3c-0.1,0.7-0.5,1.3-1,1.7c-3.6,3.3-6.9,6.9-10,10.7
			c-0.3,0.4-0.6,0.8-1.1,0.9c-0.3,0.3-0.8,0.4-1.1,0.1c-0.1-0.1-0.2-0.2-0.2-0.3c-1.2-1.6-2.6-3-4.2-4.2c4.1-5.5,8.7-10.5,13.8-15.1
			C2914.8,1489,2915.3,1488.7,2915.7,1488.3z"/>
		<path class="st66" d="M3018.5,1589.1c-4.8,0-9.6,0-14.4-0.1c-1.1,0-1.6,0.5-1.9,1.8c-1.7,7.8-4.2,15.4-7.4,22.7
			c-2.6,6-4,12.4-4.2,18.9c-0.3,7.6,1.2,14.6,3.2,21.6c0.3,0.9,0.8,0.7,1.3,0.8c2.3,0,4.6,0,6.9,0c0.6,0,1.3-0.3,1.8,0.4l-59.3-0.1
			h-13.7c0.5-0.7,1.2-0.4,1.8-0.4c5.8,0,11.5,0,17.3,0c0.5,0,1.1,0.4,1.4-0.4c0.1-0.7,0-1.4-0.5-2c-1.4-2.9-3.8-2.7-5.9-2.7
			c-3.4-0.1-6.8-0.4-10.1-1c-2.8-0.4-5.4-1.8-7.5-3.7c-1.7-1.7-1.6-4.2-1.3-6.6c0.4-1.7,0.5-3.4,0.3-5.2c-0.1-1.2-0.5-2.5-1.2-3.5
			c-1-1.2-0.6-2,0.4-2.7c0.3-0.2,0.9-0.2,0.8-0.9c-0.1-0.5-0.5-0.5-0.9-0.6c-1.2-0.3-1.4-1.3-1.2-2.7c0.1-0.7,0.3-1.4,0.4-2.1
			c1.2-4,0-6.5-3.5-7c-0.6-0.1-1.3-0.3-1.8-0.6c-2.8-1.6-3.2-4.2-1.3-7.2c2.6-4.1,5.2-8.3,7.8-12.5c1.9-3.1,1.9-5.9,0.2-9.1
			c-1-1.9-0.7-4.2-0.4-6.2c1.1-6.4,2-12.8,3.7-19c1.2-3.9,2.9-7.6,5.2-11c5.9-9.1,13.6-14.5,22.5-16.9c4.2-1.2,8.5-1.5,12.8-0.9
			c2.6,0.3,5.1,0.8,7.7,1.4c1,0.3,1.6-0.1,1.6-1.7c0-3.1,0-6.1,0.1-9.2c0.8,0.3,0.6,1.2,0.6,1.8c0,11.8,0,23.6,0,35.5
			c0,2.2-0.4,2.5-2.2,2.6c-8.6,0-17.3,0-25.9,0c-0.5-0.1-1-0.1-1.5,0c8.5,0,17.1,0,25.7,0c4.4,0,3.9,0.6,4-5c0-6.9,0-13.7,0-20.6
			c0-0.8-0.2-1.8,0.4-2.5c5.9,1.8,10.9,5.7,15.1,11.3c2.3,2.8,4,6.1,5,9.5c0.2,0.7,0.4,1.6,1.2,1.6c-0.7,2.1-2.2,3.4-3.5,4.9
			c-3.3,3.9-6.6,7.9-9.8,12.1c-1.1,1.7-3,2.7-5,2.6c-11.4-0.1-22.7,0-34.1,0c1,0.1,2.1,0.1,3.1,0c10.6,0,21.2,0,31.8,0
			c1.3,0.1,2.5-0.5,3.2-1.6c4.1-5.3,8.3-10.3,12.5-15.4c0.5-0.6,0.8-1.5,1.7-1.3c0.5,3.5,1,7,1.6,10.5c0.7,5.8,0.7,11.6,0,17.4
			c-0.1,1.2-0.2,2.5-0.2,3.7c-0.7,0.5-1.6,0.7-2.5,0.5c-3.1-0.2-6.2,0-7.8,0c7.4-0.1,16.4-0.1,25.3,0c0.2,0,0.4,0.1,0.5,0.3
			C3018.7,1588.7,3018.7,1588.9,3018.5,1589.1z"/>
		<path class="st67" d="M2892.6,1530.1c1-3.8-1.6-6.3-3.2-9.3c-1.1-2-2.2-3.9-3.2-6c-0.3-0.6-0.8-1.5,0.4-1.4
			c4.6,0.4,9.2,0,13.8,0.2c0.6,0,1.3-0.3,1.6,0.3s-0.4,1.2-0.7,1.8c-1.6,2.8-3.1,5.8-4.9,8.4c-1.3,2-1.3,4.1-1.3,6.4
			c0.1,0.9,0.1,1.7-0.1,2.6c-0.2,1.1-1,1.9-2,2.1c-0.8,0-0.4-1.4-0.4-2.2S2892.6,1531.5,2892.6,1530.1z"/>
		<path class="st68" d="M2922.2,1494.6c1-2,2.3-3.8,3.8-5.4c1.3-1.2,1.7-3.2,0.8-4.8c-1.5-3.8-0.1-8.1,3.4-10.3c3.2-1.8,6.8,0,8.3,4
			s0.2,8.6-2.7,10.5c-1.9,1.4-4.4,1.3-6.3-0.1c-0.8-0.6-1.3-0.5-1.9,0.4c-1.1,1.5-2.4,3-3.5,4.5
			C2923.5,1494,2923.1,1494.6,2922.2,1494.6z"/>
		<path class="st69" d="M2895.8,1603.1c-1.1,3.4-3.5,4.3-5.9,5.4c-1.5,0.7-3.2,1.2-4.8,1.2c-4.2,1.1-4.2,1.1-4.2-4.4
			c0-1.2,0-2.3,0-3.5c0.1-0.1,0.1-0.2,0.2-0.3c2.2-0.7,4.6-0.6,6.8-1.4c2.4-0.8,4.9-1.7,6.8-4c0.3-0.4,0.8-1.2,1.3-0.1
			C2895.8,1598.4,2896,1600.7,2895.8,1603.1z"/>
		<path class="st70" d="M2880.5,1601.8c-2.8,0-5.6-0.5-8.3-1.3c-1.7,0.1-3.3-0.8-4.1-2.2c-1.3-1.4-3-2.5-2.3-5.2
			c4.2,5.4,9.5,6.2,15.1,6l0.1,0.2c0.1,0.8,0.4,1.7-0.1,2.5v0.1L2880.5,1601.8z"/>
		<path class="st71" d="M2880.7,1578.5c-3.9,0.3-7.8-0.8-10.9-3.3c-3.1-2.5-1.9-5.6,0.3-7.3c2.4-1.8,5.2-2.8,8.2-2.9
			c3.9-0.4,7.7-0.2,11.3,1.8c1.6,0.8,3.3,1.6,3.8,4.1c0.4,2.2-0.6,3.8-2.5,5C2887.7,1577.8,2884.2,1578.7,2880.7,1578.5z"/>
		<path class="st72" d="M2880.8,1588.1c0-2.2,0-4.4,0-6.6c0-1.2,0.2-1.7,1.2-1.7c3.1,0,6.1-0.8,8.9-2.1c2-0.9,3.7-2.4,4.8-4.3v8.5
			c-0.1,1.8-1.2,2.5-2.1,3.2c-3.5,2.7-8,3.9-12.4,3.4C2881,1588.4,2880.9,1588.3,2880.8,1588.1z"/>
		<path class="st73" d="M2880.8,1599c0-2.7,0-5.4,0-8.1l0.2-0.3c2.5-0.9,5.1-0.8,7.6-1.6c2-0.6,3.9-1.7,5.4-3.2
			c0.5-0.5,1.1-1.5,1.9-0.4c0,2.3,0,4.6,0,6.9c0,1.2-0.5,2.3-1.4,3.1c-3.5,2.9-8,4.5-12.6,4.4c-0.4,0-0.8-0.2-1.1-0.5L2880.8,1599z"
			/>
		<path class="st74" d="M2880.8,1590.9c-2.9-0.1-5.8-0.6-8.6-1.4c-2,0.2-3.5-1-4.8-2.7c-0.6-1.4-2.3-2.2-1.6-4.5
			c4.3,4.8,9.5,6,15.1,5.7v0.2c0.4,0.8,0.4,1.7,0,2.5L2880.8,1590.9z"/>
		<path class="st75" d="M2880.9,1590.7c0.1-0.8-0.4-1.7,0-2.5c3.8,0,7.6-0.5,11.2-2.6c1.5-0.9,2.8-2.1,3.7-3.7
			c0.1,0.1,0.1,0.1,0.2,0.1c0,0.4,0,0.9,0,1.3c-0.3,0.5,0.1,1.2-0.3,1.7c-0.9,0.1-1.3,1.1-1.9,1.7c-2.4,2.2-5.2,2.9-8,3.5
			C2884.2,1590.7,2882.5,1590.9,2880.9,1590.7z"/>
		<path class="st76" d="M2872.2,1581.8c0,4.3,0,4.4-3,2.5c-0.8-0.5-1.7-0.8-1.8-2.1c-0.1-1.8,0-3.6,0.1-5.4c0-0.5,0.5-0.4,0.9-0.2
			c1.1,0.5,2.2,1,3.2,1.7C2872.8,1579.1,2871.9,1580.7,2872.2,1581.8z"/>
		<path class="st77" d="M2868,1598.2l4.1,2.2c0,1.9,0,3.7,0,5.6c0,1.1-0.4,1.7-1.3,0.8c-0.2-0.2-0.5-0.4-0.7-0.5
			c-1-0.4-2.4-0.8-2.6-2.1c-0.3-1.8-0.3-3.7,0-5.6C2867.5,1598.5,2867.9,1598.4,2868,1598.2z"/>
		<path class="st78" d="M2867.4,1586.8c1.6,0.9,3.2,1.8,4.8,2.7c0,1.8,0,3.5,0,5.3c0,0.6,0,1.2-0.7,1.2c-1.6,0.3-4.1-2.5-4.2-4.6
			C2867.2,1589.9,2867.8,1588.4,2867.4,1586.8z"/>
		<path class="st79" d="M3024.8,1642.3c2.2-0.5,3,0.5,2.5,3.2c-0.9,0.8-1.8,1.5-2.7,0.2C3023.9,1644.7,3024,1643.3,3024.8,1642.3z"
			/>
		<path class="st80" d="M3008.6,1545.3c-4-7-9.4-13.1-15.9-17.9c-1-0.7-1.1-1.3-0.6-2.5c1.8-4.2,3.6-8.3,5.3-12.6
			c0.6-1.5,1.1-1.6,2.2-0.8c7,5.2,13.1,11.7,17.9,19c6.6,10.1,11.1,21.4,13.3,33.3c0.7,3.4,0.8,2.6-1.6,3.3c-3.4,1-6.9,1.8-10.3,2.8
			c-1.1,0.3-1.6,0.2-1.8-1.3c-1.4-7.6-4-14.9-7.6-21.7c0.5-2.1,1.9-3.9,3.9-4.8c0.4-0.2,0.9-0.1,1.3-0.5l0.4-0.3
			c0.6-0.6,0.8-1.6,0.3-2.3c-0.3-0.7-0.8-1.1-1.4-0.9c-0.7,0.2-1.2,0.9-1.2,1.7c-0.3,2.5-1.9,3.7-3.1,5.3
			C3009.5,1545.4,3009.1,1545.6,3008.6,1545.3z"/>
		<path class="st81" d="M3018.6,1587.3c0-3.8,0-7.6-0.4-11.4c-0.1-1.2,0-1.7,1.1-1.8c3.7-0.6,7.4-1.3,11.1-2.1
			c1.4-0.3,1.9,0.2,2.1,2.1c0.9,10.3,0.3,20.7-1.7,30.8c-0.5,2.7-0.5,2.7-2.6,1.9c-3.4-1.2-6.7-2.5-10.1-3.7
			c-1.1-0.4-1.6-0.9-1.2-2.4c0.8-3.8,1.4-7.7,1.6-11.6h0.2c1.8-0.9,3.6-1.1,5.2,0.5c0.8,0.8,1.6,0.9,2.3-0.1c0.5-0.6,0.5-1.5,0-2.2
			c-0.7-0.9-1.6-1.2-2.3-0.2c-1.3,1.7-2.9,0.9-4.4,1C3019,1588,3018.8,1587.7,3018.6,1587.3z"/>
		<path class="st55" d="M2979.2,1520.5c-3.4-1.1-7-1.7-10.6-1.8c-1.1,0-1.6-0.4-1.6-2c0.1-4.8,0.1-9.6,0-14.5c0-1.3,0.3-1.8,1.4-1.7
			c8.5,0.4,16.7,2.6,24.2,6.5c1.1,0.6,1.5,1.2,0.9,2.7c-1.6,4.3-3.1,8.6-4.6,13c-0.4,1.3-0.9,1.5-1.9,1c-2.2-1.1-4.4-2-6.7-3
			c-0.7-2.5-0.7-5.2,0-7.7c0-0.1,0.1-0.3,0.2-0.4c0.5-0.6,0.5-1.5,0-2.2c-0.4-0.4-0.8-0.6-1.2-0.2c-0.6,0.6-0.7,1.5-0.2,2.1
			c1.2,1.9,0.8,4.1,0.9,6.3C2979.9,1519.4,2979.9,1520.2,2979.2,1520.5z"/>
		<path class="st82" d="M3001.6,1556.1c-4.7,5.8-9.5,11.5-14.1,17.3c-0.7,1-1.8,1.6-3,1.6c-10.6-0.1-21.2,0-31.8,0
			c-1.1-0.2-2.3-0.1-3.4,0.3c-0.6,0.3-1.1,0-1.1-0.9s0.4-1.2,1-1.1c3.7,0.8,7.5,0.3,11.2,0.3c7.8,0.1,15.6-0.1,23.3,0.1
			c1.8,0,3.4-0.8,4.4-2.3c1.6-2,3.1-3.9,4.7-5.9c3-3.6,6-7.2,9-10.8c2.3-3.1,4.8-5.9,7.2-8.8c0.3,0.1,0.5,0.4,0.4,0.7
			c0,0,0,0.1,0,0.1L3001.6,1556.1z"/>
		<path class="st83" d="M2979.2,1520.5c0.2-2.6,1-5.2-0.7-7.6c-0.6-0.9-0.6-2.1,0-3c0.3-0.7,1.1-0.9,1.8-0.6
			c0.1,0.1,0.3,0.2,0.4,0.3c0.8,0.6,1.3,1.8,0.6,2.6c-1.7,2.2-1,4.9-1.1,7.4c0,0.4,0,0.7,0.1,1.1c0,3.9,0,7.8,0,11.7
			c0,8.8-0.1,17.5,0,26.3c0,1.8-0.4,2.3-1.8,2.3c-8.7-0.1-17.4,0-26.1,0c-1,0-1.9-0.3-2.9,0.4c-0.4,0.4-0.9,0-1.2-0.5
			c-0.2-0.2-0.2-0.5,0-0.8c0.1-0.4,0.6-0.6,1-0.5c0,0,0,0,0,0c2.2,0.8,4.5,0.3,6.7,0.4c7.3,0.1,14.5,0,21.8,0c1.2,0,1.8-0.4,1.8-2.1
			c0-12,0-23.9,0-35.9c0.1-0.5,0-1-0.3-1.4C2979.2,1520.6,2979.2,1520.6,2979.2,1520.5z"/>
		<path class="st84" d="M3018.6,1588.6h-29c0-0.3,0-0.5,0-0.8c4.5,0,9-0.1,13.5-0.1l15.2,0.1
			C3018.6,1587.9,3018.8,1588.1,3018.6,1588.6z"/>
		<path class="st85" d="M3009.2,1546.9l-0.4-0.8c-0.1-0.3-0.2-0.5-0.3-0.8c1.8-1.4,3.5-2.9,3.9-5.9c0.1-1.1,0.7-2,1.8-2.1
			s1.6,0.8,1.9,1.9s0.2,2.2-1,2.5c-0.2-0.4,0-0.8,0-1.2c0-0.7-0.2-1.3-0.8-1.4c-0.4,0-0.6,0.3-0.7,0.8c-0.2,0.5,0.1,1.1,0.6,1.3
			c0,0,0,0,0,0c0.4,0.1,0.7,0.3,0.9,0.6c-0.1,0.2-0.3,0.6-0.4,0.6c-2.6,0-3.6,2.7-5.2,4.6L3009.2,1546.9z"/>
		<path class="st86" d="M3018.6,1588.6c-0.1-0.3-0.2-0.6-0.3-0.8l0.4-0.5c1.7,0,3.4,1.4,5-0.9c0.7-1,2-0.7,2.8,0.5
			c0.8,1,0.7,2.4-0.2,3.3c-0.9,1-2,1.2-2.7-0.1s-1.6-0.8-2.5-0.9s-1.6,0-2.4-0.1L3018.6,1588.6z"/>
		<path class="st59" d="M2895.7,1585.1c0.1-0.6,0-1.2,0.3-1.7c0,6.3,0,12.7,0.1,19c0,0.3-0.1,0.5-0.3,0.8c0-2.5-0.1-5-0.1-7.5
			c-0.7-1-0.1-2,0-3C2895.7,1590.1,2895.7,1587.6,2895.7,1585.1z"/>
		<path class="st84" d="M2987.7,1587.7c-0.8,1-1.3,1.2-1.9,1.2c-11.4-0.6-22.8-0.1-34.2-0.2c-0.8,0.1-1.6,0.3-2.4,0.7
			c-0.5,0.2-1-0.1-1.1-0.5c0,0,0-0.1,0-0.1c-0.1-0.3-0.1-0.7,0-1c0.2-0.4,0.7-0.5,1.1-0.3c0,0,0,0,0,0c1.4,0.6,2.8,0.4,4.1,0.4
			c10.7,0,21.3,0,32,0H2987.7z"/>
		<path class="st87" d="M2900.9,1514.7c-1.8,3.1-3.3,5.8-4.9,8.6c-1.2,1.7-1.8,3.7-1.6,5.7c0.1,0.9,0.1,1.7,0,2.6
			c0,0.7,0,1.6-0.6,1.6c-0.8,0-0.5-1.1-0.4-1.6c0.9-5.2-1.6-8.7-3.8-12.3c-0.9-1.5-1.8-3-2.5-4.7H2900.9z"/>
		<path class="st88" d="M2932.5,1488.3c-3,0-5.3-3-5.2-6.8s2.4-6.8,5.5-6.8s5.4,3,5.3,7.2C2938,1485.7,2935.6,1488.3,2932.5,1488.3z
			"/>
		<path class="st89" d="M2895.7,1592.6c0,1,0,2,0,3c-4.1,5.2-9.4,5.9-14.9,6.1c0.1-0.8-0.4-1.7,0-2.5c4.2-0.1,8.3-0.7,12.1-3.3
			C2894.2,1595.1,2895.2,1594,2895.7,1592.6z"/>
		<path class="st90" d="M3015.2,1541.7c-0.7-0.4-1.8,0.7-2.1-1c-0.2-0.8,0.1-1.7,0.7-2.3c0.6-0.5,1,0,1.5,0.5
			C3016.3,1539.9,3015.5,1540.8,3015.2,1541.7L3015.2,1541.7z"/>
		<path class="st91" d="M3026.3,1588.1c-0.1,1-0.5,1.7-1.3,1.7c-0.9,0-1.6-0.7-1.6-1.5c0,0,0,0,0,0c-0.1-0.9,0.5-1.7,1.4-1.8
			C3025.7,1586.4,3026.1,1587.1,3026.3,1588.1z"/>
		<path class="st92" d="M2937,1482.4c-0.4-1.4-0.7-2.3-1-3.2c-0.4-1.3-1.5-2.2-2.9-2.4c-0.4,0-0.8-0.3-0.8-0.7c0,0,0,0,0,0
			c0-0.6,0.4-0.6,0.8-0.6C2935.5,1475.5,2937.6,1478.7,2937,1482.4z"/>
	</g>
	<polygon class="st53" points="3234.1,1885.4 2854.5,1782.7 2854.5,1664.4 3234.1,1767.1 	"/>
	<polygon class="st0" points="4012.3,1174.9 4480.4,1181.9 4468,1541.4 4000.1,1529.1 	"/>
	<polygon class="st1" points="4397.1,1209.3 4259.2,1116.3 4086.2,1207 4082.2,1201.1 4259.8,1107.9 4401.9,1203.9 	"/>
	<path class="st1" d="M4237.1,1106.9c-0.1,1.2-0.3,2.4-0.4,3.6c0,0.4-0.1,0.8-0.1,1.2c-0.2,1.9-0.2,1.6,0-0.8
		c-3.6,10.5,6.3,21.3,18.5,21.3c12.7,0,21.4-10.7,18.5-21.3c1.1,4.1,0.3,0.9,0.2-0.4s-0.1-2.4-0.2-3.6c-0.4-8.3-8.1-16.4-18.3-16
		C4244.6,1091.3,4238.1,1097.9,4237.1,1106.9L4237.1,1106.9z"/>
	<polygon class="st2" points="4050.2,1220.9 4422.1,1208.5 4430.4,1494.4 4058.4,1502.6 	"/>
	<polygon class="st1" points="4055.6,1408.2 4144.7,1312.1 4242,1408.2 4333.9,1337.2 4446.5,1408.2 4446.5,1515.3 4039.3,1515.3 
		4029.6,1426.2 	"/>
</g>
</svg>
