<svg id="Layer_1" data-name="Layer 1" xmlns="http://www.w3.org/2000/svg" xmlns:xlink="http://www.w3.org/1999/xlink" viewBox="0 0 718 145"><defs><style>.cls-1{fill:none;}.cls-2,.cls-3,.cls-5{fill:#9745ff;}.cls-2{clip-rule:evenodd;}.cls-4{clip-path:url(#clip-path);}.cls-5{fill-rule:evenodd;}.cls-6{clip-path:url(#clip-path-2);}.cls-7{clip-path:url(#clip-path-3);}.cls-8{clip-path:url(#clip-path-4);}.cls-9{clip-path:url(#clip-path-5);}.cls-10{font-size:130px;fill:#111;font-family:FuturaPT-Heavy, Futura PT;font-weight:800;}.cls-11{letter-spacing:-0.01em;}.cls-12{letter-spacing:-0.02em;}</style><clipPath id="clip-path"><rect class="cls-1" x="-2502" y="-54" width="1924" height="1024"/></clipPath><clipPath id="clip-path-2"><path class="cls-2" d="M-1215,1415.71c251.29,0,455-199.55,455-445.71s-203.71-445.71-455-445.71S-1670,723.84-1670,970-1466.29,1415.71-1215,1415.71Zm0,178.29c-351.81,0-637-279.37-637-624s285.19-624,637-624,637,279.37,637,624S-863.19,1594-1215,1594Zm-95.67-316.36a334.34,334.34,0,0,1-148.91-105.11A436.48,436.48,0,0,0-1410,970a436.48,436.48,0,0,0-49.58-202.53,334.34,334.34,0,0,1,148.91-105.11A611.38,611.38,0,0,1-1228,970,611.38,611.38,0,0,1-1310.67,1277.64Zm-347.39,282.69A648.18,648.18,0,0,1-1865,1594c-351.81,0-637-279.37-637-624s285.19-624,637-624a648.18,648.18,0,0,1,206.94,33.67,754.7,754.7,0,0,0-149,148.19,468.52,468.52,0,0,0-57.89-3.57c-251.29,0-455,199.55-455,445.71s203.71,445.71,455,445.71a468.52,468.52,0,0,0,57.89-3.57A754.7,754.7,0,0,0-1658.06,1560.33Z"/></clipPath><clipPath id="clip-path-3"><path class="cls-2" d="M-3936,1444.44c267.48,0,484.32-212.41,484.32-474.44S-3668.57,495.56-3936,495.56-4420.38,708-4420.38,970-4203.54,1444.44-3936,1444.44Zm0,189.78c-374.48,0-678.06-297.38-678.06-664.22S-4310.53,305.78-3936,305.78-3258,603.16-3258,970-3561.58,1634.22-3936,1634.22Zm-101.84-336.76a355.71,355.71,0,0,1-158.5-111.88A464.61,464.61,0,0,0-4143.62,970a464.61,464.61,0,0,0-52.77-215.58,355.71,355.71,0,0,1,158.5-111.88,650.76,650.76,0,0,1,88,327.46A650.76,650.76,0,0,1-4037.89,1297.46Zm-369.78,300.92a689.86,689.86,0,0,1-220.28,35.84c-374.47,0-678.05-297.38-678.05-664.22s303.58-664.22,678.05-664.22a689.86,689.86,0,0,1,220.28,35.84,803.82,803.82,0,0,0-158.66,157.74,499,499,0,0,0-61.62-3.8c-267.48,0-484.32,212.41-484.32,474.44s216.84,474.44,484.32,474.44a499,499,0,0,0,61.62-3.8A803.82,803.82,0,0,0-4407.67,1598.38Z"/></clipPath><clipPath id="clip-path-4"><path class="cls-2" d="M124.47,114.64c23.76,0,43-18.87,43-42.14s-19.26-42.14-43-42.14-43,18.87-43,42.14S100.71,114.64,124.47,114.64Zm0,16.86c-33.26,0-60.23-26.42-60.23-59s27-59,60.23-59,60.23,26.42,60.23,59S157.73,131.5,124.47,131.5Zm-9-29.91a31.67,31.67,0,0,1-14.08-9.94,41.44,41.44,0,0,0,0-38.3,31.67,31.67,0,0,1,14.08-9.94,58,58,0,0,1,0,58.18ZM82.58,128.32A61.42,61.42,0,0,1,63,131.5c-33.26,0-60.23-26.42-60.23-59s27-59,60.23-59a61.42,61.42,0,0,1,19.57,3.18,71.44,71.44,0,0,0-14.1,14A44.76,44.76,0,0,0,63,30.36c-23.76,0-43,18.87-43,42.14s19.26,42.14,43,42.14a44.76,44.76,0,0,0,5.47-.33A71.44,71.44,0,0,0,82.58,128.32Z"/></clipPath><clipPath id="clip-path-5"><rect class="cls-3" x="-365.97" y="-701.87" width="921.87" height="1996.17"/></clipPath></defs><title>logo</title><g class="cls-4"><path class="cls-5" d="M-1215,1415.71c251.29,0,455-199.55,455-445.71s-203.71-445.71-455-445.71S-1670,723.84-1670,970-1466.29,1415.71-1215,1415.71Zm0,178.29c-351.81,0-637-279.37-637-624s285.19-624,637-624,637,279.37,637,624S-863.19,1594-1215,1594Zm-95.67-316.36a334.34,334.34,0,0,1-148.91-105.11A436.48,436.48,0,0,0-1410,970a436.48,436.48,0,0,0-49.58-202.53,334.34,334.34,0,0,1,148.91-105.11A611.38,611.38,0,0,1-1228,970,611.38,611.38,0,0,1-1310.67,1277.64Zm-347.39,282.69A648.18,648.18,0,0,1-1865,1594c-351.81,0-637-279.37-637-624s285.19-624,637-624a648.18,648.18,0,0,1,206.94,33.67,754.7,754.7,0,0,0-149,148.19,468.52,468.52,0,0,0-57.89-3.57c-251.29,0-455,199.55-455,445.71s203.71,445.71,455,445.71a468.52,468.52,0,0,0,57.89-3.57A754.7,754.7,0,0,0-1658.06,1560.33Z"/><g class="cls-6"><rect class="cls-3" x="-6402" y="-7220" width="9750" height="21112"/></g></g><path class="cls-5" d="M-3936,1444.44c267.48,0,484.32-212.41,484.32-474.44S-3668.57,495.56-3936,495.56-4420.38,708-4420.38,970-4203.54,1444.44-3936,1444.44Zm0,189.78c-374.48,0-678.06-297.38-678.06-664.22S-4310.53,305.78-3936,305.78-3258,603.16-3258,970-3561.58,1634.22-3936,1634.22Zm-101.84-336.76a355.71,355.71,0,0,1-158.5-111.88A464.61,464.61,0,0,0-4143.62,970a464.61,464.61,0,0,0-52.77-215.58,355.71,355.71,0,0,1,158.5-111.88,650.76,650.76,0,0,1,88,327.46A650.76,650.76,0,0,1-4037.89,1297.46Zm-369.78,300.92a689.86,689.86,0,0,1-220.28,35.84c-374.47,0-678.05-297.38-678.05-664.22s303.58-664.22,678.05-664.22a689.86,689.86,0,0,1,220.28,35.84,803.82,803.82,0,0,0-158.66,157.74,499,499,0,0,0-61.62-3.8c-267.48,0-484.32,212.41-484.32,474.44s216.84,474.44,484.32,474.44a499,499,0,0,0,61.62-3.8A803.82,803.82,0,0,0-4407.67,1598.38Z"/><g class="cls-7"><rect class="cls-3" x="-9457.35" y="-7747.84" width="10378.38" height="22472.65"/></g><path class="cls-5" d="M124.47,114.64c23.76,0,43-18.87,43-42.14s-19.26-42.14-43-42.14-43,18.87-43,42.14S100.71,114.64,124.47,114.64Zm0,16.86c-33.26,0-60.23-26.42-60.23-59s27-59,60.23-59,60.23,26.42,60.23,59S157.73,131.5,124.47,131.5Zm-9-29.91a31.67,31.67,0,0,1-14.08-9.94,41.44,41.44,0,0,0,0-38.3,31.67,31.67,0,0,1,14.08-9.94,58,58,0,0,1,0,58.18ZM82.58,128.32A61.42,61.42,0,0,1,63,131.5c-33.26,0-60.23-26.42-60.23-59s27-59,60.23-59a61.42,61.42,0,0,1,19.57,3.18,71.44,71.44,0,0,0-14.1,14A44.76,44.76,0,0,0,63,30.36c-23.76,0-43,18.87-43,42.14s19.26,42.14,43,42.14a44.76,44.76,0,0,0,5.47-.33A71.44,71.44,0,0,0,82.58,128.32Z"/><g class="cls-8"><rect class="cls-3" x="-365.97" y="-701.87" width="921.87" height="1996.17"/><g class="cls-9"><rect class="cls-3" x="-9.51" y="1.21" width="206.5" height="142.58"/></g></g><text class="cls-10" transform="translate(226.94 109.78)"><tspan class="cls-11">S</tspan><tspan class="cls-12" x="70.2" y="0">w</tspan><tspan x="179.01" y="0">appy</tspan></text></svg>