<svg xmlns="http://www.w3.org/2000/svg" xmlns:xlink="http://www.w3.org/1999/xlink" viewBox="0 0 1081.18 1996.17"><defs><style>.cls-1,.cls-2,.cls-3{fill:#9745ff;}.cls-1{clip-rule:evenodd;}.cls-3{fill-rule:evenodd;}.cls-4{clip-path:url(#clip-path);}.cls-5{clip-path:url(#clip-path-2);}.cls-6{font-size:130px;font-family:FuturaPT-Heavy, Futura PT;font-weight:800;}.cls-7{letter-spacing:-0.01em;}.cls-8{letter-spacing:-0.02em;}</style><clipPath id="clip-path"><path class="cls-1" d="M490.44,816.52c23.76,0,43-18.87,43-42.15s-19.26-42.14-43-42.14-43,18.87-43,42.14S466.68,816.52,490.44,816.52Zm0,16.85c-33.27,0-60.23-26.41-60.23-59s27-59,60.23-59,60.23,26.42,60.23,59S523.7,833.37,490.44,833.37Zm-9.05-29.91a31.59,31.59,0,0,1-14.08-9.94,41.42,41.42,0,0,0,0-38.29,31.59,31.59,0,0,1,14.08-9.94,58,58,0,0,1,0,58.17Zm-32.84,26.73A61.14,61.14,0,0,1,429,833.37c-33.26,0-60.23-26.41-60.23-59s27-59,60.23-59a61.14,61.14,0,0,1,19.57,3.19,71.44,71.44,0,0,0-14.1,14,44.88,44.88,0,0,0-5.47-.34c-23.76,0-43,18.87-43,42.14s19.26,42.15,43,42.15a44.88,44.88,0,0,0,5.47-.34A71.44,71.44,0,0,0,448.55,830.19Z"/></clipPath><clipPath id="clip-path-2"><rect class="cls-2" width="921.87" height="1996.17"/></clipPath></defs><title>Asset 4</title><g id="Layer_2" data-name="Layer 2"><g id="Layer_1-2" data-name="Layer 1"><path class="cls-3" d="M490.44,816.52c23.76,0,43-18.87,43-42.15s-19.26-42.14-43-42.14-43,18.87-43,42.14S466.68,816.52,490.44,816.52Zm0,16.85c-33.27,0-60.23-26.41-60.23-59s27-59,60.23-59,60.23,26.42,60.23,59S523.7,833.37,490.44,833.37Zm-9.05-29.91a31.59,31.59,0,0,1-14.08-9.94,41.42,41.42,0,0,0,0-38.29,31.59,31.59,0,0,1,14.08-9.94,58,58,0,0,1,0,58.17Zm-32.84,26.73A61.14,61.14,0,0,1,429,833.37c-33.26,0-60.23-26.41-60.23-59s27-59,60.23-59a61.14,61.14,0,0,1,19.57,3.19,71.44,71.44,0,0,0-14.1,14,44.88,44.88,0,0,0-5.47-.34c-23.76,0-43,18.87-43,42.14s19.26,42.15,43,42.15a44.88,44.88,0,0,0,5.47-.34A71.44,71.44,0,0,0,448.55,830.19Z"/><g class="cls-4"><rect class="cls-2" width="921.87" height="1996.17"/><g class="cls-5"><rect class="cls-2" x="356.46" y="703.08" width="206.5" height="142.58"/></g></g><text class="cls-6" transform="translate(592.91 812.53)"><tspan class="cls-7">S</tspan><tspan class="cls-8" x="70.2" y="0">w</tspan><tspan x="179.01" y="0">appy</tspan></text></g></g></svg>