<svg id="Layer_1" data-name="Layer 1" xmlns="http://www.w3.org/2000/svg" xmlns:xlink="http://www.w3.org/1999/xlink" viewBox="0 0 1924 1024"><defs><style>.cls-1{fill:none;}.cls-2,.cls-3,.cls-5{fill:#9745ff;}.cls-2{clip-rule:evenodd;}.cls-4{clip-path:url(#clip-path);}.cls-5{fill-rule:evenodd;}.cls-6{clip-path:url(#clip-path-2);}.cls-7{clip-path:url(#clip-path-3);}.cls-8{clip-path:url(#clip-path-4);}</style><clipPath id="clip-path"><rect class="cls-1" width="1924" height="1024"/></clipPath><clipPath id="clip-path-2"><path class="cls-2" d="M1287,1469.71c251.29,0,455-199.55,455-445.71s-203.71-445.71-455-445.71S832,777.84,832,1024,1035.71,1469.71,1287,1469.71Zm0,178.29c-351.81,0-637-279.37-637-624s285.19-624,637-624,637,279.37,637,624S1638.81,1648,1287,1648Zm-95.67-316.36a334.34,334.34,0,0,1-148.91-105.11,438.45,438.45,0,0,0,0-405.06,334.34,334.34,0,0,1,148.91-105.11,613.75,613.75,0,0,1,0,615.28ZM843.94,1614.33A648.18,648.18,0,0,1,637,1648C285.19,1648,0,1368.63,0,1024S285.19,400,637,400a648.18,648.18,0,0,1,206.94,33.67A754.7,754.7,0,0,0,694.89,581.86,468.52,468.52,0,0,0,637,578.29c-251.29,0-455,199.55-455,445.71s203.71,445.71,455,445.71a468.52,468.52,0,0,0,57.89-3.57A754.7,754.7,0,0,0,843.94,1614.33Z"/></clipPath><clipPath id="clip-path-3"><rect class="cls-3" x="-3900" y="-7166" width="9750" height="21112"/></clipPath><clipPath id="clip-path-4"><path class="cls-2" d="M-1434,1498.44c267.48,0,484.32-212.41,484.32-474.44S-1166.57,549.56-1434,549.56-1918.38,762-1918.38,1024-1701.54,1498.44-1434,1498.44Zm0,189.78c-374.48,0-678.06-297.38-678.06-664.22S-1808.53,359.78-1434,359.78-756,657.16-756,1024-1059.58,1688.22-1434,1688.22Zm-101.84-336.76a355.71,355.71,0,0,1-158.5-111.88A464.61,464.61,0,0,0-1641.62,1024a464.61,464.61,0,0,0-52.77-215.58,355.71,355.71,0,0,1,158.5-111.88,650.76,650.76,0,0,1,88,327.46A650.76,650.76,0,0,1-1535.89,1351.46Zm-369.78,300.92a689.86,689.86,0,0,1-220.28,35.84c-374.47,0-678.05-297.38-678.05-664.22s303.58-664.22,678.05-664.22a689.86,689.86,0,0,1,220.28,35.84,803.82,803.82,0,0,0-158.66,157.74,499,499,0,0,0-61.62-3.8c-267.48,0-484.32,212.41-484.32,474.44s216.84,474.44,484.32,474.44a499,499,0,0,0,61.62-3.8A803.82,803.82,0,0,0-1905.67,1652.38Z"/></clipPath></defs><title>logo-header</title><g class="cls-4"><path class="cls-5" d="M1287,1469.71c251.29,0,455-199.55,455-445.71s-203.71-445.71-455-445.71S832,777.84,832,1024,1035.71,1469.71,1287,1469.71Zm0,178.29c-351.81,0-637-279.37-637-624s285.19-624,637-624,637,279.37,637,624S1638.81,1648,1287,1648Zm-95.67-316.36a334.34,334.34,0,0,1-148.91-105.11,438.45,438.45,0,0,0,0-405.06,334.34,334.34,0,0,1,148.91-105.11,613.75,613.75,0,0,1,0,615.28ZM843.94,1614.33A648.18,648.18,0,0,1,637,1648C285.19,1648,0,1368.63,0,1024S285.19,400,637,400a648.18,648.18,0,0,1,206.94,33.67A754.7,754.7,0,0,0,694.89,581.86,468.52,468.52,0,0,0,637,578.29c-251.29,0-455,199.55-455,445.71s203.71,445.71,455,445.71a468.52,468.52,0,0,0,57.89-3.57A754.7,754.7,0,0,0,843.94,1614.33Z"/><g class="cls-6"><rect class="cls-3" x="-3900" y="-7166" width="9750" height="21112"/><g class="cls-7"><rect class="cls-3" x="-130" y="270" width="2184" height="1508"/></g></g></g><path class="cls-5" d="M-1434,1498.44c267.48,0,484.32-212.41,484.32-474.44S-1166.57,549.56-1434,549.56-1918.38,762-1918.38,1024-1701.54,1498.44-1434,1498.44Zm0,189.78c-374.48,0-678.06-297.38-678.06-664.22S-1808.53,359.78-1434,359.78-756,657.16-756,1024-1059.58,1688.22-1434,1688.22Zm-101.84-336.76a355.71,355.71,0,0,1-158.5-111.88A464.61,464.61,0,0,0-1641.62,1024a464.61,464.61,0,0,0-52.77-215.58,355.71,355.71,0,0,1,158.5-111.88,650.76,650.76,0,0,1,88,327.46A650.76,650.76,0,0,1-1535.89,1351.46Zm-369.78,300.92a689.86,689.86,0,0,1-220.28,35.84c-374.47,0-678.05-297.38-678.05-664.22s303.58-664.22,678.05-664.22a689.86,689.86,0,0,1,220.28,35.84,803.82,803.82,0,0,0-158.66,157.74,499,499,0,0,0-61.62-3.8c-267.48,0-484.32,212.41-484.32,474.44s216.84,474.44,484.32,474.44a499,499,0,0,0,61.62-3.8A803.82,803.82,0,0,0-1905.67,1652.38Z"/><g class="cls-8"><rect class="cls-3" x="-6955.35" y="-7693.84" width="10378.38" height="22472.65"/></g></svg>