<svg width="44" height="28" viewBox="0 0 44 28" fill="none" xmlns="http://www.w3.org/2000/svg">
<path fill-rule="evenodd" clip-rule="evenodd" d="M30 24C35.5228 24 40 19.5228 40 14C40 8.47715 35.5228 4 30 4C24.4772 4 20 8.47715 20 14C20 19.5228 24.4772 24 30 24ZM30 28C37.732 28 44 21.732 44 14C44 6.26801 37.732 0 30 0C22.268 0 16 6.26801 16 14C16 21.732 22.268 28 30 28Z" fill="#9745FF"/>
<path fill-rule="evenodd" clip-rule="evenodd" d="M26.1263 21.0013C27.318 18.9418 28 16.5505 28 14C28 11.4495 27.318 9.05822 26.1263 6.99872C24.8877 7.68546 23.8506 8.69132 23.1259 9.90527C23.6875 11.155 24 12.541 24 14C24 15.459 23.6875 16.845 23.1259 18.0947C23.8506 19.3087 24.8877 20.3145 26.1263 21.0013ZM17.1257 4.49819C16.1423 4.1749 15.0916 4 14 4C8.47715 4 4 8.47715 4 14C4 19.5228 8.47715 24 14 24C15.0916 24 16.1423 23.8251 17.1257 23.5018C17.9831 24.6616 18.9935 25.7015 20.1271 26.5916C18.2765 27.4938 16.1974 28 14 28C6.26801 28 0 21.732 0 14C0 6.26801 6.26801 0 14 0C16.1974 0 18.2765 0.506229 20.1271 1.40843C18.9935 2.29851 17.9831 3.33837 17.1257 4.49819Z" fill="#9745FF"/>
</svg>
